<?xml version="1.0" standalone="no"?> 
<!DOCTYPE svg PUBLIC "-//W3C//DTD SVG 1.1//EN" "http://www.w3.org/Graphics/SVG/1.1/DTD/svg11.dtd" >
<svg xmlns="http://www.w3.org/2000/svg">
<defs>
  <font id="ovh-font" horiz-adv-x="80.1">
    <font-face font-family="ovh-font"
      units-per-em="80" ascent="80"
      descent="0" />
    <missing-glyph horiz-adv-x="0" />
    <glyph glyph-name="activer"
      unicode="&#xF101;"
      horiz-adv-x="80" d=" M39.8 41C38.7 41 37.8 41.9 37.8 43V78C37.8 79.1 38.7 80 39.8 80S41.8 79.1 41.8 78V43C41.8 41.9 41 41 39.8 41z M40 0C17.3 0 6.9 17.7 6.9 34.2S16.5 63.7 31.4 67.4C32.5 67.7 33.6 67 33.8 65.9C34.1 64.8 33.4 63.7 32.3 63.5C19.3 60.3 10.9 48.7 10.9 34.2C10.9 19.6 20 4 40 4S69.1 19.7 69.1 34.2C69.1 49.1 60.6 60.7 47.4 63.7C46.3 63.9 45.6 65 45.9 66.1C46.1 67.2 47.2 67.9 48.3 67.6C63.4 64.1 73.1 51 73.1 34.2C73.1 14 59.5 0 40 0z" />
    <glyph glyph-name="add-circle"
      unicode="&#xF102;"
      horiz-adv-x="80" d=" M40 0C13.4 0 1.3 20.7 1.3 40C1.3 63.1 17.6 80 40 80C62.8 80 78.7 63.5 78.7 39.9C78.7 16.4 62.8 0 40 0zM40 76C19.9 76 5.3 60.8 5.3 39.9C5.3 22.6 16.2 3.9 40 3.9C63.9 3.9 74.7 22.5 74.7 39.9C74.7 61.2 60.4 76 40 76z M63.5 42.3L42 42.2L42.1 63.4C42.1 64.5 41.2 65.4 40.1 65.4S38.1 64.5 38.1 63.4L38 42.2L16.5 42.1C15.4 42.1 14.5 41.2 14.5 40.1S15.4 38.3 16.5 38.3H38L37.9 16.4C37.9 15.3 38.8 14.3 39.9 14.3S41.9 15.3 41.9 16.4L42 38.3H63.5C64.6 38.3 65.5 39.1 65.5 40.2C65.5 41.3 64.6 42.3 63.5 42.3z" />
    <glyph glyph-name="add-credit"
      unicode="&#xF103;"
      horiz-adv-x="80" d=" M30 17.4C28.9 17.4 28 18.3 28 19.4V22.8C28 23.9 28.9 24.8 30 24.8S32 23.9 32 22.8V19.4C32 18.3 31.1 17.4 30 17.4zM21 17.4C19.9 17.4 19 18.3 19 19.4V22.8C19 23.9 19.9 24.8 21 24.8S23 23.9 23 22.8V19.4C23 18.3 22.1 17.4 21 17.4zM12 17.4C10.9 17.4 10 18.3 10 19.4V22.8C10 23.9 10.9 24.8 12 24.8S14 23.9 14 22.8V19.4C14 18.3 13.1 17.4 12 17.4zM77 50.2H58V69.7C58 71.4 56.7 72.7 55 72.7S52 71.4 52 69.7V50.2H34C32.3 50.2 31 48.9 31 47.2S32.3 44.2 34 44.2H52V26.7C52 25 53.3 23.7 55 23.7S58 25 58 26.7V44.2H77C78.7 44.2 80 45.5 80 47.2S78.6 50.2 77 50.2z M65 40.2V19.1C65 14.7 61.8 11.2 57.4 11.2H12C7.6 11.2 4 14.7 4 19.1V34.2H48V38.2H4V45.2H27.3C27 45.2 26.9 46.7 26.9 47.5C26.9 48.1 27 48.2 27.1 49.2H5.1C6.5 51.6 9.1 53.2 12 53.2H48V57.2H12C5.4 57.2 0 51.9 0 45.3V19.2C0 12.6 5.4 7.3 12 7.3H57.4C64 7.2 69 12.6 69 19.2V40.2H65z" />
    <glyph glyph-name="affinity"
      unicode="&#xF104;"
      horiz-adv-x="80" d=" M53.9 66.2C49 66.2 44.2 64.8 40 62.2C27.8 69.9 11.6 66.2 4 53.9S0 25.5 12.3 17.9C20.8 12.6 31.6 12.6 40.1 17.9C52.4 10.3 68.5 14 76.1 26.3S80 54.7 67.7 62.3C63.5 64.8 58.8 66.2 53.9 66.2zM28.7 40.1C28.7 48.5 33 56.4 40 61C51.6 53.4 54.8 37.8 47.2 26.2C45.3 23.3 42.9 20.9 40 19C33 23.7 28.7 31.6 28.7 40.1z" />
    <glyph glyph-name="ajouter"
      unicode="&#xF105;"
      horiz-adv-x="80" d=" M76 45H43V76C43 78.2 41.2 80 39 80S35 78.2 35 76V45H4C1.8 45 0 43.2 0 41S1.8 37 4 37H35V4C35 1.8 36.8 0 39 0S43 1.8 43 4V37H76C78.2 37 80 38.8 80 41S78.2 45 76 45z" />
    <glyph glyph-name="alarm"
      unicode="&#xF106;"
      horiz-adv-x="80" d=" M75.4 13C69.5 13 65.5 17.1 65.5 23.3V44.9C65.5 58.9 57.1 69.2 44.5 71.4V74.8C44.5 77.8 42.4 80 39.4 80C36.5 80 34.3 77.7 34.3 74.8V71.3C22 69.1 13.5 58.6 13.5 44.9V23C13.5 16.7 8.9 13 4.5 13V9H29C29.9 3.9 34 0 39.5 0C44.9 0 49.1 3.9 50 9H75.5L75.4 13zM38.3 74.8C38.3 75.5 38.7 76 39.4 76C40.3 76 40.5 75.4 40.5 74.8V71.8H38.3V74.8zM39.5 4C35.9 4 33.8 6.5 33.1 9H45.9C45.1 6.1 42.7 4 39.5 4zM13.7 13C16 15.4 17.5 18.8 17.5 23V44.9C17.5 58.2 26.7 67.8 39.5 67.8C52.5 67.8 61.5 58.4 61.5 44.9V23.3C61.5 19.1 63 15.5 65.5 13H13.7z" />
    <glyph glyph-name="anti-affinity"
      unicode="&#xF107;"
      horiz-adv-x="80" d=" M54.3 66C49.5 66 44.8 64.6 40.7 62.1C39.9 61.5 38.7 60.7 37.2 59.5C26.5 50.3 25.3 34.1 34.5 23.4C35.3 22.5 36.1 21.7 37 20.9C26.3 15.4 13.2 19.7 7.7 30.4S6.5 54.2 17.2 59.7C22.4 62.4 28.5 62.8 34.1 60.9C35.1 62 36.1 63 37.2 63.9C30.8 66.7 23.5 66.7 17 63.9C3.7 59.1 -3.3 44.4 1.5 31.1S21 10.7 34.3 15.5C35.1 15.8 36 16.2 36.8 16.5C38 17 39.2 17.6 40.3 18.2C41.1 18.8 44.1 21.1 44.5 21.4C54.9 31 55.6 47.2 46.1 57.6C45.5 58.3 44.8 58.9 44.1 59.5C54.7 65.1 67.9 61.1 73.5 50.5S75.1 26.7 64.5 21.1C59.1 18.2 52.8 17.8 47.1 19.8C46.1 18.8 44.9 17.6 43.8 16.6C56.8 10.8 72 16.7 77.8 29.7S77.7 57.9 64.7 63.7C61.4 65.2 57.9 66 54.3 66z" />
    <glyph glyph-name="antiDDoS"
      unicode="&#xF108;"
      horiz-adv-x="80" d=" M70 59.6C69.5 60.8 69 62 68.4 63.2L67.8 64.3H66.6C62.5 64.3 58.6 65 55.1 66.5C51.8 67.9 48.8 69.9 46.2 72.6C44.5 74.4 43 76.5 41.8 79L41.4 80H38.6L38 78.9C36.8 76.4 35.4 74.4 33.6 72.5C31 69.8 28.1 67.8 24.7 66.4C21.2 65 17.3 64.2 13.2 64.2H12L11.4 63.1C10.8 62 10.3 60.8 9.8 59.5C8.6 55.8 3.3 40 3.3 34.3C3.3 28 5 23 8.4 19.3C11.5 16 36.2 2.1 39 0.6L40 0.1L41 0.6C43.8 2.2 68.5 16 71.6 19.3C75 23 76.7 28 76.7 34.4C76.7 40.1 71.4 55.9 70 59.6zM68.6 22C66.6 19.9 50.4 10.4 40 4.6C37.6 5.9 35 7.4 32.3 9C21.7 15.3 18.1 30 24.5 41.2C27 45.4 30.9 48.5 35.5 49.7C40.1 50.9 44.8 50.2 48.8 47.8C55.4 43.9 57.6 35.2 53.7 28.4C52.2 25.8 49.9 24 47.1 23.3C44.4 22.6 41.5 23 39.1 24.4C35.2 26.7 33.9 31.8 36.2 35.8C37 37.3 38.4 38.3 40 38.7C41.6 39.1 43.2 38.9 44.6 38.1C45.3 37.7 45.9 37 46.3 36.3C45.9 36.8 45.5 37.2 44.9 37.6C43.7 38.3 42.3 38.5 40.9 38.2C39.5 37.8 38.3 36.9 37.6 35.7C35.9 32.7 36.9 28.9 39.8 27.2C41.4 26.2 43.4 26 45.2 26.4C47.1 26.9 48.7 28.1 49.6 29.8C52 33.9 50.6 39.2 46.6 41.5C44.3 42.9 41.6 43.3 39 42.6C36.4 41.9 34.1 40.2 32.8 37.8C29.5 32 31.4 24.4 37.1 21C40.4 19 44.4 18.5 48.1 19.4C51.9 20.4 55.2 22.9 57.2 26.4C62.2 35 59.4 46.1 50.9 51.2C45.9 54.2 40.1 55 34.5 53.5C28.8 52 24 48.3 21 43.2C16 34.5 16.1 24.2 20.3 16C15.7 18.8 12.1 21.1 11.2 22.1C8.5 25 7.1 29.1 7.1 34.4C7.1 39.1 12 54.3 13.5 58.3C13.8 59 14.1 59.8 14.4 60.4C18.5 60.5 22.5 61.4 26.1 62.9C29.9 64.5 33.4 66.8 36.3 69.9C37.8 71.1 39 72.6 40 74.2C41 72.6 42.2 71.1 43.4 69.8C46.3 66.7 49.8 64.4 53.6 62.8C57.2 61.3 61.2 60.5 65.3 60.3L66.2 58.2C67.8 54.1 72.6 39.2 72.6 34.4C72.7 29.1 71.3 24.9 68.6 22z" />
    <glyph glyph-name="arrow-rotate"
      unicode="&#xF109;"
      horiz-adv-x="80" d=" M11.7 21.2L0.9 36.3C-1.5 39.6 1 43.7 4.9 43.7H9.4C11.4 59 24.6 70.8 40.3 70.8C44.6 70.8 48.7 69.9 52.7 68.2C56 66.9 57.8 63.1 56.6 59.7C55.4 56 51.2 53.9 47.1 55.7C45 56.6 42.7 57 40.3 57C32 57 25.2 51.3 23.4 43.5H27.4C29.7 43.5 31.4 42.1 32 40.5C32.6 38.9 32.3 37.5 31.3 36.1L20.6 21.1C18.4 18.1 13.9 18.2 11.7 21.2zM4.9 39.7C4.3 39.7 4.1 39.4 4 39.3C3.9 39.1 4 38.9 4.1 38.7L15 23.6C15.8 22.7 16.8 22.8 17.4 23.6L28.2 38.7C28.3 38.9 28.5 39.1 28.3 39.3C28.2 39.6 27.8 39.7 27.4 39.7H21C19.7 39.7 18.9 40.9 19 41.9C20.1 52.9 29.3 61.1 40.3 61.1C43.2 61.1 46.1 60.5 48.7 59.4C52.7 57.7 54.6 63 51.1 64.6C47.7 66.1 44 66.9 40.3 66.9C26.1 66.9 14.2 55.7 13.3 41.6C13.2 40.5 12.4 39.7 11.3 39.7H4.9zM68.3 59L79.1 43.9C81.5 40.6 79 36.5 75.1 36.5H70.6C68.7 21.2 55.5 9.3 39.8 9.3C35.5 9.3 31.4 10.2 27.4 11.9C24.1 13.2 22.3 17 23.5 20.4C24.7 24.1 28.9 26.2 33 24.4C35.1 23.5 37.4 23.1 39.8 23.1C48.1 23.1 54.9 28.8 56.7 36.6H52.7C50.4 36.6 48.7 38 48.1 39.6C47.5 41.2 47.8 42.6 48.8 44L59.5 59C61.6 62.1 66.1 62 68.3 59zM75.1 40.5C75.7 40.5 75.9 40.8 76 40.9C76.1 41.1 76 41.3 75.9 41.5L65.1 56.6C64.3 57.5 63.3 57.4 62.7 56.6L52 41.5C51.9 41.3 51.7 41.1 51.9 40.9C52 40.6 52.4 40.5 52.8 40.5H59.2C60.5 40.5 61.3 39.3 61.2 38.3C60.1 27.3 51 19.1 40 19.1C37.1 19.1 34.2 19.7 31.6 20.8C27.6 22.5 25.7 17.2 29.2 15.6C32.6 14.1 36.3 13.3 40 13.3C54.2 13.3 66.1 24.5 67 38.6C67.1 39.7 67.9 40.5 69 40.5H75.1z" />
    <glyph glyph-name="arrow-down"
      unicode="&#xF10A;"
      horiz-adv-x="80" d=" M40.1 4.2C38.7 4.2 37.3 5 36.6 6.2L0.6 68.6C-0.5 70.4 0.2 72.9 2.1 74S6.5 74.4 7.6 72.5L40.1 16.1L72.6 72.5C73.7 74.4 76.2 75.1 78.1 74C79.9 72.9 80.6 70.4 79.5 68.5L43.5 6.1C42.8 5 41.5 4.2 40.1 4.2z" />
    <glyph glyph-name="arrow-left"
      unicode="&#xF10B;"
      horiz-adv-x="80" d=" M71.3 0.3C70.6 0.3 69.9 0.5 69.3 0.8L6.9 36.8C5.7 37.5 4.9 38.8 4.9 40.3S5.7 43.1 6.9 43.8L69.3 79.7C71.2 80.8 73.7 80.1 74.8 78.2C75.9 76.3 75.2 73.8 73.3 72.7L16.8 40.2L73.2 7.6C75.1 6.5 75.8 4 74.7 2.1C73.9 1 72.6 0.3 71.3 0.3z" />
    <glyph glyph-name="arrow-right"
      unicode="&#xF10C;"
      horiz-adv-x="80" d=" M8.8 0.3C7.4 0.3 6.1 1 5.3 2.3C4.2 4.2 4.9 6.7 6.8 7.8L63.2 40.4L6.9 72.8C5 73.8 4.3 76.3 5.4 78.2S9 80.8 10.9 79.7L73.3 43.7C74.5 43 75.3 41.7 75.3 40.2S74.5 37.4 73.3 36.7L10.8 0.8C10.2 0.4 9.5 0.3 8.8 0.3z" />
    <glyph glyph-name="arrow-up"
      unicode="&#xF10D;"
      horiz-adv-x="80" d=" M76 4.2C74.6 4.2 73.3 4.9 72.5 6.2L40.1 62.5L7.6 6.2C6.5 4.3 4 3.7 2.1 4.8S-0.5 8.4 0.6 10.3L36.6 72.5C37.3 73.7 38.6 74.5 40.1 74.5S42.9 73.7 43.6 72.5L79.6 10.2C80.7 8.3 80 5.8 78.1 4.7C77.4 4.4 76.7 4.2 76 4.2z" />
    <glyph glyph-name="small-arrow-down"
      unicode="&#xF10E;"
      horiz-adv-x="80" d=" M40 16.3C38.9 16.3 37.8 16.8 37 17.6L1.1 57.1C-0.3 58.7 -0.2 61.3 1.4 62.8C3 64.2 5.6 64.1 7.1 62.5L40.1 26.2L73.1 62.5C74.6 64.1 77.1 64.3 78.8 62.8S80.6 58.8 79.1 57.1L43 17.6C42.2 16.7 41.1 16.3 40 16.3z" />
    <glyph glyph-name="small-arrow-right"
      unicode="&#xF10F;"
      horiz-adv-x="80" d=" M63.8 39.9C63.8 38.8 63.3 37.7 62.5 36.9L23 1C21.4 -0.4 18.8 -0.3 17.3 1.3C15.9 2.9 16 5.5 17.6 7L53.9 40L17.6 73C16 74.5 15.8 77 17.3 78.7S21.3 80.5 23 79L62.5 42.9C63.4 42.1 63.8 41 63.8 39.9z" />
    <glyph glyph-name="backToV4"
      unicode="&#xF110;"
      horiz-adv-x="80.1" d=" M26.5 32.3L16 6.1H10.5L0 32.3H4.9C5.9 32.3 6.6 31.7 6.9 31L12 17C12.2 16.4 12.5 15.7 12.7 15C12.9 14.3 13.1 13.5 13.3 12.7C13.5 13.5 13.7 14.3 13.9 15C14.1 15.7 14.3 16.4 14.6 17L19.6 31C19.9 31.7 20.6 32.3 21.6 32.3H26.5zM46.1 16.2V13.1C46.1 12.6 45.7 12.1 45 12.1H43.4V6.1H38.5V12.1H28C27.4 12.1 26.7 12.6 26.5 13.2L26 16L38.1 32.3H43.4V16.3H46.1zM38.6 16.2V23.1V24.5C38.6 25 38.7 25.5 38.7 26L31.8 16.3H38.6z M61.5 18.8C58.5 21 56.9 26.2 60.1 30.3C65.9 37.6 64.6 48.3 57.3 54.1C51.9 58.4 44.5 58.9 38.6 55.6L45.1 50.6C46.1 49.9 46.5 48.7 46.3 47.5C46.1 46.3 45.2 45.4 44.1 45L14.9 36.2C13.9 35.9 12.8 36.1 12 36.8S10.7 38.5 10.8 39.5L12.8 69C12.9 70.2 13.6 71.2 14.7 71.7C15.7 72.1 17 72 17.9 71.3L25 65.9C36.9 76.3 54.9 76.9 67.4 67C84 53.8 82.7 32.3 73 20.2C69.8 16.1 64.8 16.3 61.5 18.8zM59.8 57.2C68.9 50.1 70.4 36.9 63.3 27.8C61.9 25.9 62.2 23.5 64 21.9C65.7 20.4 68.6 21 69.9 22.6C78.8 34.1 79.2 52.2 65 63.8C53.5 72.8 37 72 26.5 61.8C25.8 61.1 24.7 61 23.9 61.6L16.7 67.1L14.9 40.3L41.5 48.3L34 54C33 54.8 32.9 56.3 34 57.2C40.1 62.2 51 64 59.8 57.2z" />
    <glyph glyph-name="bin"
      unicode="&#xF111;"
      horiz-adv-x="80" d=" M72.5 57.7C72.5 63.3 67.6 68 62 68H54.5V69.9C54.5 75.4 50.3 80 44.7 80H35.4C29.8 80 25.4 75.4 25.4 69.9V68H18.1C12.5 68 7.4 63.3 7.4 57.7V48H12.4V10.2C12.4 4.5 17 0 22.7 0H57.3C63 0 67.4 4.5 67.4 10.2V48H72.4V57.7zM29.5 69.9C29.5 73.2 32.1 76 35.5 76H44.8C48.1 76 50.6 73.2 50.6 69.9V68H29.6V69.9zM63.5 10.2C63.5 6.7 60.8 4 57.4 4H22.8C19.3 4 16.5 6.7 16.5 10.2V48H63.5V10.2zM68.5 52H11.5V57.7C11.5 61.1 14.8 64 18.2 64H62C65.4 64 68.5 61.1 68.5 57.7V52z M24 40H28V12H24zM38 40H42V12H38zM52 40H56V12H52z" />
    <glyph glyph-name="bootDisk"
      unicode="&#xF112;"
      horiz-adv-x="80" d=" M40 79.9C24.8 79.9 10.6 71 4 57.3C3.3 55.8 3.9 54 5.4 53.3C6.9 52.6 8.7 53.2 9.4 54.7C15.1 66.4 27.1 73.9 40 73.9C58.7 73.9 73.9 58.7 73.9 40S58.7 6.1 40 6.1C22.3 6.1 7.7 19.7 6.2 37.1H43.9L30.2 29.2C28.8 28.4 28.3 26.5 29.1 25.1C29.9 23.7 31.8 23.2 33.2 24L56.4 37.4C57.3 37.9 57.9 38.9 57.9 40S57.3 42.1 56.4 42.6L33.2 55.9C31.8 56.7 29.9 56.2 29.1 54.8C28.3 53.4 28.8 51.5 30.2 50.7L43.4 43H3.1C1.4 43 0.1 41.7 0.1 40C0.1 18 18 0.1 40 0.1S79.9 18 79.9 40S62 79.9 40 79.9z" />
    <glyph glyph-name="broom"
      unicode="&#xF113;"
      horiz-adv-x="80" d=" M79.4 79.4C78.6 80.2 77.4 80.2 76.6 79.4L35.1 37.9L33.2 39.8C30.9 42.1 27.4 42.5 24.6 40.7L1 25.7C0.5 25.4 0.2 24.8 0.1 24.2C0 23.6 0.2 23 0.7 22.6L22.8 0.5C23.2 0.1 23.7 -0.1 24.2 -0.1H24.4C25 0 25.5 0.3 25.9 0.8L40.9 24.5C42.7 27.3 42.3 30.8 40 33.1L38.1 35L79.4 76.6C80.2 77.4 80.2 78.6 79.4 79.4zM30.3 37L37 30.3C38 29.3 38.1 27.8 37.4 26.7L36.1 24.6L24.7 36.1L26.8 37.4C27.9 38.2 29.4 38 30.3 37zM23.7 5.2L19.5 9.4L23 12.9C23.8 13.7 23.8 14.9 23 15.7S21 16.5 20.2 15.7L16.7 12.2L12.2 16.7L15.7 20.2C16.5 21 16.5 22.2 15.7 23S13.7 23.8 12.9 23L9.4 19.5L5.2 23.7L21.2 33.9L33.9 21.2L23.7 5.2z" />
    <glyph glyph-name="caddy"
      unicode="&#xF114;"
      horiz-adv-x="80" d=" M75.6 27.8H76.1C76.2 27.8 76.3 27.8 76.4 27.9C76.5 27.9 76.5 28 76.6 28S76.7 28.1 76.8 28.1S76.9 28.2 76.9 28.2C77 28.2 77 28.3 77.1 28.3L77.2 28.4C77.3 28.5 77.3 28.5 77.3 28.6S77.4 28.7 77.4 28.8S77.5 28.9 77.5 29S77.5 29.1 77.6 29.2C77.6 29.3 77.6 29.3 77.7 29.4V29.6V29.7L80 56.5V56.7V56.9V57.1V57.3C80 57.4 79.9 57.4 79.9 57.5S79.8 57.6 79.8 57.7S79.7 57.8 79.7 57.9S79.6 58 79.6 58.1S79.5 58.2 79.5 58.3L79.3 58.5C79.2 58.5 79.2 58.6 79.1 58.6S79 58.7 78.9 58.7S78.8 58.8 78.7 58.8S78.6 58.9 78.5 58.9H78.1L14.8 66.6L14.6 69.3C14.6 69.4 14.6 69.5 14.5 69.6V69.7C14.5 69.8 14.4 69.9 14.4 70V70.1C14.2 70.5 13.8 70.9 13.3 71.1C13.2 71.1 13.2 71.2 13.1 71.2L2.9 74.3C1.7 74.7 0.5 74.1 0.1 72.9S0.4 70.5 1.6 70.1L10.2 67.4L13.3 29.8V29.5C13.3 29.4 13.3 29.4 13.4 29.3C13.4 29.2 13.4 29.2 13.5 29.1C13.5 29 13.6 29 13.6 28.9S13.7 28.8 13.7 28.7S13.8 28.6 13.8 28.5L13.9 28.4C14 28.3 14 28.3 14.1 28.3L14.2 28.2C14.3 28.2 14.3 28.1 14.4 28.1S14.5 28 14.6 28S14.8 27.9 14.9 27.9H16.6L13.4 19.9V19.7C13.4 19.6 13.3 19.5 13.3 19.4V18.5C10.7 17.6 8.8 15.1 8.8 12.2A6.7 6.7 0 0 0 22.2 12.2C22.2 13.9 21.5 15.5 20.5 16.6H66.1C65 15.4 64.4 13.9 64.4 12.2A6.7 6.7 0 0 0 77.8 12.2C77.8 15.5 75.3 18.3 72.1 18.8L70.4 20.5C70 20.9 69.4 21.2 68.8 21.2H27.7L30.4 27.9H75.6zM75.4 54.7L73.5 32.2H17.7L15.1 62L75.4 54.7zM15.6 10C14.4 10 13.4 11 13.4 12.2C13.4 13.4 14.4 14.4 15.6 14.4S17.8 13.4 17.8 12.2C17.8 11 16.8 10 15.6 10zM71.1 10C69.9 10 68.9 11 68.9 12.2C68.9 13.4 69.9 14.4 71.1 14.4C72.3 14.4 73.3 13.4 73.3 12.2C73.3 11 72.3 10 71.1 10zM22.9 21.1H18.8L21.5 27.8H25.6L22.9 21.1z" />
    <glyph glyph-name="cart"
      unicode="&#xF115;"
      horiz-adv-x="80" d=" M0 73.9V69.9H13V36.2C13 30.6 17.9 25.9 23.5 25.9H76V29.9H23.5C20.1 29.9 17 32.8 17 36.2V37.9H68C74.6 37.9 80 43.4 80 50V73.9H0zM76 50C76 45.6 72.4 41.9 68 41.9H17V69.9H76V50zM29.3 6.1C24.9 6.1 21.3 9.7 21.3 14.1S24.9 22.1 29.3 22.1S37.3 18.5 37.3 14.1S33.7 6.1 29.3 6.1zM29.3 18.1C27.1 18.1 25.3 16.3 25.3 14.1S27.1 10.1 29.3 10.1S33.3 11.9 33.3 14.1S31.5 18.1 29.3 18.1zM68.3 6.1C63.9 6.1 60.3 9.7 60.3 14.1S63.9 22.1 68.3 22.1S76.3 18.5 76.3 14.1S72.7 6.1 68.3 6.1zM68.3 18.1C66.1 18.1 64.3 16.3 64.3 14.1S66.1 10.1 68.3 10.1S72.3 11.9 72.3 14.1S70.5 18.1 68.3 18.1z" />
    <glyph glyph-name="cdn"
      unicode="&#xF116;"
      horiz-adv-x="80" d=" M55 32.2L80 40L55 47.8L60.1 57.6C60.5 58.3 60.3 59.2 59.8 59.7C59.2 60.3 58.4 60.4 57.7 60L47.8 55L40 80L32.2 55L22.4 60.1C21.7 60.5 20.8 60.3 20.3 59.8C19.7 59.2 19.6 58.4 20 57.7L25.1 47.9L0 40L25 32.2L19.9 22.4C19.5 21.7 19.7 20.8 20.2 20.3C20.5 20 21 19.8 21.5 19.8C21.8 19.8 22.1 19.9 22.3 20L32.1 25.1L40 0L47.8 25L57.6 19.9C57.9 19.8 58.1 19.7 58.4 19.7C58.9 19.7 59.3 19.9 59.7 20.2C60.3 20.8 60.4 21.6 60 22.3L55 32.2zM33.6 33.6L13.4 40L33.7 46.4L40 66.6L46.4 46.3L66.6 40L46.3 33.6L40 13.4L33.6 33.6z" />
    <glyph glyph-name="certificate"
      unicode="&#xF117;"
      horiz-adv-x="80" d=" M19.5 63H60.5V59H19.5zM19.5 53H42.5V49H19.5z M71.5 61.9C71.5 71.9 63.1 80 53.1 80H8.5V7H40.5V0L50 6.1L59.5 0V7H71.5V61.9zM49.9 20.8C45 20.8 41.1 24.7 41.1 29.6S45 38.4 49.9 38.4S58.7 34.5 58.7 29.6C58.7 24.8 54.8 20.8 49.9 20.8zM50 10.8L44.5 7.2V18.1C45.5 17.3 47.8 16.8 49.8 16.8C52 16.8 54.5 17.3 55.5 18.3V7.2L50 10.8zM67.5 11H59.5V21.7C61.5 23.9 62.5 26.6 62.5 29.6C62.5 36.7 56.9 42.4 49.8 42.4S37.2 36.7 37.2 29.6C37.2 26.4 38.5 23.5 40.5 21.2V11H12.5V76H53.1C60.9 76 67.5 69.7 67.5 61.9V11z" />
    <glyph glyph-name="check"
      unicode="&#xF118;"
      horiz-adv-x="80" d=" M29.6 9C28.5 9 27.5 9.7 26.7 10.5L1.2 37.7C-0.3 39.3 -0.2 41.9 1.4 43.4S5.5 44.9 7 43.3L29.5 19.4L72.9 69.5C74.3 71.2 76.9 71.3 78.5 69.9C80.2 68.5 80.3 65.9 78.9 64.3L32.6 10.6C31.9 9.8 30.8 9 29.6 9C29.7 9 29.7 9 29.6 9z" />
    <glyph glyph-name="clock"
      unicode="&#xF119;"
      horiz-adv-x="80" d=" M40 0C13.4 0 1.3 20.7 1.3 39.9C1.3 63.2 17.6 80 40 80C62.8 80 78.7 63.5 78.7 39.9C78.7 16.4 62.8 0 40 0zM40 76C19.9 76 5.3 60.8 5.3 39.9C5.3 22.6 16.2 4 40 4C63.8 4 74.7 22.6 74.7 39.9C74.7 61.2 60.4 76 40 76z M54.4 57.2C53.6 57.9 52.3 57.8 51.6 57L43 46.7C42.1 47.1 41.1 47.3 40 47.3C35.9 47.3 32.6 44 32.6 39.9C32.6 35.8 35.9 32.5 40 32.5C44.1 32.5 47.4 35.8 47.4 39.9C47.4 41.5 46.9 42.9 46.1 44.1L54.7 54.3C55.3 55.2 55.2 56.4 54.4 57.2zM43.4 40C43.4 38.1 41.9 36.6 40 36.6S36.6 38.1 36.6 40S38.1 43.4 40 43.4H40.1L38.3 41.2C37.6 40.4 37.7 39.1 38.5 38.4C38.9 38.1 39.3 37.9 39.8 37.9C40.4 37.9 40.9 38.1 41.3 38.6L43.2 40.9C43.3 40.6 43.4 40.3 43.4 40z M70.9 39.6C70.9 39.7 71 39.9 71 40C71 40.2 71 40.4 70.9 40.5C70.7 59.1 58.1 72.1 40 72.1C22.2 72.1 9.3 58.8 9.1 40.5C9 40.4 9 40.2 9 40S9 39.8 9.1 39.6C9.2 23.9 19.8 8.1 40 8.1C58.1 8.1 70.8 21 70.9 39.6zM42.1 12.1V15.1C42.1 16.2 41.2 17.1 40.1 17.1S38.1 16.2 38.1 15.1V12.1C22.1 13 13.9 25.2 13.1 38.2H15.9C17 38.2 17.9 39.1 17.9 40.2S17 42.2 15.9 42.2H13.1C14 56.2 24.1 67.1 38.1 68V65.1C38.1 64 39 63.1 40.1 63.1S42.1 64 42.1 65.1V68C56.1 67.1 66 57.2 66.9 42.2H64.2C63.1 42.2 62.2 41.3 62.2 40.2S63.1 38.2 64.2 38.2H66.9C66.1 25.1 58.1 13 42.1 12.1z" />
    <glyph glyph-name="cloud-desktop"
      unicode="&#xF11A;"
      horiz-adv-x="80" d=" M74 76.38H6A6 6 0 0 0 2.2 75A6 6 0 0 0 1.07 73.7A6 6 0 0 0 0.07 70.38V30.38A6 6 0 0 0 1.65 26.33A6 6 0 0 0 3.25 25.09A6 6 0 0 0 6.07 24.39H24.07V16.39H8.07V4.39H68V16.39H56V24.39H74A6 6 0 0 0 78.09 26A6 6 0 0 0 79.39 27.74A6 6 0 0 0 80 30.36V70.36A6 6 0 0 0 79.22 73.36A6 6 0 0 0 76.41 75.9A6 6 0 0 0 74 76.38zM64 12.38V8.38H12V12.38H28V24.38H32V12.38H48V24.38H52V12.38zM36 24.38H44V16.38H36zM76 30.38A2 2 0 0 1 74 28.38H6A2 2 0 0 1 4.67 28.89A2 2 0 0 1 4.01 30.38V70.38A2 2 0 0 1 6.01 72.38H74A2 2 0 0 1 74.82 72.2A2 2 0 0 1 76 70.37z M8 32.38H72V68.38H8zM12 64.38H68V36.38H12z" />
    <glyph glyph-name="cloud-package"
      unicode="&#xF11B;"
      horiz-adv-x="80" d=" M75.4 41.4C74.4 42.1 73.3 42.6 72.1 43C72.1 48 70.6 52.7 66.8 56.1C65.1 57.7 63.1 58.8 60.9 59.5C59.8 59.9 58.6 60.1 57.4 60.2C56.2 60.3 56.1 60.1 55.5 61.1C51.4 68.4 42.1 71.4 34.3 69C32 68.3 29.7 67 27.9 65.4C27 64.6 26.2 63.8 25.6 62.8C25.2 62.3 24.9 61.8 24.6 61.2C24.5 61.1 24.3 60.5 24.2 60.4C24 60.3 23 60.4 22.8 60.3C22.2 60.3 21.6 60.2 21 60.1C19.8 59.9 18.6 59.5 17.4 59C15.5 58.1 13.7 56.9 12.2 55.3C10.6 53.6 9.5 51.6 8.7 49.4C8.4 48.4 8.1 47.2 8 46C7.9 45.1 8.2 43.8 7.6 43.3C7.3 43.1 6.6 43 6.2 42.8C5.7 42.6 5.2 42.3 4.7 42C3.8 41.4 3 40.5 2.3 39.6C1 37.8 0.1 35.6 0 33.3C-0.3 28.9 2.2 24.8 5.9 22.5C9.1 20.5 12.4 20.6 15.9 20.6C15.9 18.7 15.5 16.7 17.5 15.9C18.3 15.6 19.1 15.3 19.8 15L29.4 11.4C32.5 10.2 35.6 9.1 38.7 7.9C39.4 7.6 40.2 7.3 40.9 7.1C42.8 6.4 44.9 8 46.5 8.8C50.2 10.6 54.1 12.2 57.9 13.9L60.6 15.1C61.4 15.5 62.6 15.8 63.2 16.4C64.2 17.4 63.8 19.4 63.8 20.6C66.8 20.6 69.8 20.4 72.6 21.7C75.3 23 77.6 25.2 78.9 27.9C81.3 32.5 79.7 38.5 75.4 41.4C74.5 42.1 78.2 39.5 75.4 41.4zM39.9 11.7L23.1 18C22.3 18.3 20.8 18.6 20.1 19.1C19.7 19.4 19.8 19.4 19.8 20V29.9V38.4L36.6 32.1C37.4 31.8 38.9 31.5 39.6 31C40 30.7 39.9 30.7 39.9 30.1V11.7zM42.1 34.5C41.7 34.3 40.9 34.8 40.6 34.9C39.6 35.3 38.7 35.6 37.7 36C35.5 36.8 33.3 37.7 31.1 38.5C28.4 39.5 25.6 40.5 22.9 41.6C23.4 42.1 24.2 42.4 24.8 42.8C26.2 43.7 27.6 44.5 29 45.4C32 47.3 35.1 49.1 38.1 51C38.5 51.2 39.2 51.9 39.7 51.9C40.3 51.9 41.3 51 41.8 50.7L50.8 45.6L57.7 41.7C52.6 39.1 47.3 36.9 42.1 34.5zM60 19.1L44 11.9V28C44 28.7 43.7 30.1 44 30.8C44.1 31.2 44.4 31.2 44.8 31.4L52.9 35C55.3 36.1 57.7 37.1 60 38.2V19.1zM74.5 28C73 25.9 70.6 24.7 68 24.6H64.1V34V38.5C64.1 39.6 64.6 41.5 63.9 42.5C63.3 43.4 61.9 43.9 61 44.4C59.9 45 58.8 45.6 57.8 46.3C53.9 48.5 49.9 50.8 46 53C44.3 53.9 42.7 55 41 55.8C38.7 56.9 36.2 54.4 34.3 53.3L22.9 46.4C21.1 45.3 19.4 44.1 17.5 43.3C15.9 42.6 16 41.3 16 39.9V24.6C13.5 24.6 11 24.3 8.7 25.5C6.7 26.6 4.9 28.5 4.3 30.7C3.6 33.1 4.4 36 6 37.8C7.7 39.6 10 39.8 12.2 40.5C11.7 44.8 11.9 48.8 14.8 52.2C17.6 55.5 21.6 56.6 25.8 56.4C26.6 56.4 26.6 56.2 26.9 56.7C27.4 57.4 27.6 58.5 28.1 59.3C29 61 30.4 62.5 32 63.5C35.7 65.9 40.6 66.4 44.7 65C49.1 63.5 51.5 60.4 53.2 56.2C57.3 56.4 61.1 55.9 64.3 52.9C66 51.3 67.1 49.3 67.7 47.1C68.3 44.7 68 42.5 67.8 40.1C68.7 39.9 69.4 39.7 70.3 39.3C71.7 38.6 73.2 38.4 74.3 37.1C76.6 34.7 76.6 30.6 74.5 28C73.4 26.5 76.1 30 74.5 28z" />
    <glyph glyph-name="cloud-public2"
      unicode="&#xF11C;"
      horiz-adv-x="80" d=" M80 20.6V24.6C80 25.4 79.8 26.3 79.8 27.1C79.7 27.8 79.7 27.7 79.7 27.5C79.6 28 79.4 28.5 79.1 29C78.7 29.6 78.1 29.9 77.7 30.5C77.4 31 77.5 31.7 77.4 32.3C77.2 33.2 77 34 76.6 34.8C76 36.1 75 37.3 73.9 38.3C73.3 38.8 72.7 39.2 72 39.5C71.4 39.8 70.3 39.9 70 40.5C69.8 41 70 42.3 69.9 42.8C69.8 43.6 69.7 44.3 69.5 45.1C69.1 46.7 68.4 48.3 67.5 49.8C65.9 52.4 63.6 54.5 60.8 55.8C59.5 56.4 58.1 56.8 56.7 57C56.1 57.1 55.2 57 54.6 57.3C54 57.6 53.8 58.4 53.4 59C51.9 61.3 49.9 63.3 47.4 64.7C42.9 67.2 37.9 67.6 33.1 65.9C30.4 65 28 63.3 26.1 61.2C25.2 60.1 24.6 58.9 23.8 57.8C23.1 56.8 21.3 57.1 20.1 56.8C14.8 55.6 10.5 51.6 8.8 46.6C8.3 45.1 7.9 43.6 7.9 42C7.9 41.4 8.1 40.5 7.7 40C7.4 39.6 6.2 39.5 5.8 39.3C3.4 38.2 1.5 36.1 0.7 33.6C0 31.5 -0.2 29.8 0.5 27.7C1.5 24.8 3 22.6 5.8 21.1C9.4 19.1 13.2 19.4 17.2 19.4C20 19.4 22.9 19.2 25.7 19.2H35.4C35.4 17.2 35.4 15.5 36.6 13.8C37.7 12.4 39.3 11.7 41 11.3C41.7 11.1 42.4 11.2 43.1 11.2H69.8C73.2 11.2 76.7 10.7 78.9 13.9C80.3 15.9 80 18.3 80 20.6zM71.8 34.2C72.6 33.7 73.2 32.9 73.3 32H71.8V34.2zM14.1 23.5C10.6 23.5 6.9 23.8 5 27.2C3.6 29.8 4.3 33.1 6.7 34.9C8.3 36.1 10.4 36.4 12.3 37C11.9 40 11.8 43 13.1 45.8C14.3 48.5 16.4 50.7 19.1 52C20.3 52.6 21.6 52.9 22.9 53C23.6 53.1 24.3 53.1 25.1 53C26.3 52.9 26.3 52.8 26.7 53.9C27.6 56.5 29.3 58.9 31.7 60.4C36.6 63.6 43.4 63.1 47.8 59.2C48.8 58.3 49.6 57.3 50.3 56.2C50.7 55.5 51.2 53 52 52.7C52.4 52.6 53.2 52.8 53.7 52.9C54.5 52.9 55.4 52.9 56.2 52.7C57.6 52.4 59 51.9 60.2 51.2C62.7 49.7 64.5 47.4 65.3 44.6C65.6 43.7 65.8 42.8 65.9 41.9C65.9 41.5 66.3 39.8 65.9 39.5C65.6 39.2 64.4 39.4 64 39.4C64 42.8 63.2 46.3 59.4 47.3C58.4 47.6 57.3 47.5 56.3 47.5H26.1C24.3 47.5 22.5 47.3 21.2 46.2C19.7 45.1 18.9 43.4 18.8 41.6C18.7 38.9 18.8 36.2 18.8 33.5C18.8 31.4 19.6 29.5 21.4 28.3C23 27.2 25 27.1 27 27.2C26.9 26 27 24.8 27.3 23.6C27.3 23.6 18.2 23.5 14.1 23.5zM27.1 34.9V34.8C27 33.7 27 32.7 27 31.6C25.3 31.6 23.6 31.4 23 33.4C22.8 33.9 22.9 34.5 22.8 35.2V41.3C22.8 42.7 23.1 43.9 25 43.9H57.8C58.6 43.9 59.5 43.8 59.8 43C60.1 42.2 59.9 40.9 59.9 40C53.6 40 36.6 39.9 34.6 39.8C31 39.7 28.2 39 27.2 35.3C27.3 35.9 27.5 36.8 27.1 34.9zM35.2 25.8C35.2 25.3 35.3 24.7 35.2 24.2C35.1 23.5 35.2 23.6 34.5 23.5C33.6 23.3 32.5 23.5 31.8 24.2C31 25.1 31.1 26.2 31.1 27.3V31.2C31.1 32.9 30.5 35.5 32.8 35.7C35.3 35.9 37.8 35.7 40.2 35.7H64.8C65.7 35.7 67.1 35.9 67.8 35.1C68.4 34.4 68.1 32.7 68.1 31.9C59.3 31.9 50.5 32 41.7 31.9C38.2 31.9 35.2 29.5 35.2 25.8zM76.2 23.5C76.1 22.3 76.1 21.3 76.1 20.2C76.1 18.2 76.3 15.7 73.7 15.5H41.9C39.3 15.6 39.3 17.8 39.3 19.9V25.4C39.3 26.5 39.2 27.4 40.4 27.9C41.1 28.2 42 28.1 42.7 28.1C49.1 28.1 55.4 28 61.8 28C65.2 28 68.6 28 72 27.9H74C75 27.8 75.9 27.6 76.2 26.5C76.4 25.6 76.2 24.4 76.2 23.5z M67.9 23.5H71.9V19.5H67.9z" />
    <glyph glyph-name="cloud-root"
      unicode="&#xF11D;"
      horiz-adv-x="80" d=" M80 33S79.9 35.8 80 33zM72.2 43.3C72.2 50.2 69 56.8 62.4 59.6C61 60.2 59.4 60.6 57.9 60.8C57.2 60.9 56.4 60.8 55.9 61.2C55.4 61.7 55 62.7 54.6 63.4C52.7 66.1 49.9 68.2 46.8 69.4C42.2 71.1 37 71 32.6 69C29.2 67.5 26.3 64.9 24.6 61.6C24.3 61 24.5 61.2 24 61C23.6 60.8 22.9 60.9 22.5 60.9C21 60.7 19.6 60.4 18.2 59.8C15.3 58.6 12.7 56.5 10.9 53.8C10 52.4 9.3 50.8 8.8 49.2C8.3 47.3 8.4 45.5 8.1 43.6C3 42.1 -0.4 37 0 31.7C0.5 26.1 5.4 20.4 11.3 20.1C15.1 19.9 19 20.1 22.8 20.1H65C66.2 20.1 67.5 20 68.7 20.1C75.2 20.6 80.3 26.9 80 33C79.8 37.8 76.7 42 72.2 43.3zM75.9 31.5C75.5 28.2 72.9 25.3 69.7 24.4C68.4 24 66.9 24.2 65.6 24.2H14.7C12.9 24.2 11 24.1 9.3 24.9C5.7 26.5 3.5 30.4 4.3 34.3C4.7 36.1 5.7 38 7.3 39.1C8.8 40.2 10.7 40.2 12.4 40.8C11 46.3 13.3 52.7 18.3 55.5C20.7 56.8 23.2 57.1 25.9 57C27 57 26.9 57 27.3 58.1C27.8 59.5 28.5 60.7 29.4 61.9C33.3 66.7 40.5 67.9 46 65.4C48.5 64.3 50.6 62.4 52 60C52.5 59.2 52.8 57.3 53.6 57C54.2 56.7 55.5 57.1 56.2 57.1C57 57.1 57.8 57 58.6 56.8C61.9 56 64.7 53.9 66.4 51C68.3 47.7 68.3 44.3 67.8 40.7C69.4 40.1 71.1 39.6 72.7 38.8C75.1 37.3 76.3 34.3 75.9 31.5z M39.8 43.1C34.6 46 29.4 49 24 51.7V47.8C24 47.5 23.9 47.3 24.1 47.1C24.4 46.8 25.4 46.5 25.7 46.3C27.9 45.3 30.1 44.2 32.3 43.2C33 42.9 33.7 42.5 34.4 42.2C34.7 42.1 35.5 41.8 35.7 41.6C35.9 41.3 35.9 41.4 35.7 41.2C35.3 40.8 34.4 40.5 33.9 40.3C31.7 39.2 29.5 38.2 27.4 37.1C26.7 36.7 25.9 36.4 25.2 36C25 35.9 24.4 35.7 24.2 35.5C23.8 35 24 33.6 24 33C24 32.3 23.9 31.4 24 30.7C27.1 32.4 30.1 34 33.2 35.7C35 36.7 36.9 37.7 38.7 38.7C39 38.9 39.7 39.1 39.9 39.4C40.2 39.8 40.2 42.9 39.8 43.1zM44 32.1V28.2H59.9C60 28.5 60 32 59.9 32.1C59.5 32.2 44.2 32.2 44 32.1z" />
    <glyph glyph-name="cloud"
      unicode="&#xF11E;"
      horiz-adv-x="80" d=" M68 16H11.9C6.7 16 0.8 19.6 0.1 25.4C-0.6 32 3.6 35.8 7.9 37.2C7.8 42 9.4 46.4 12.5 49.6C15.5 52.7 19.5 54.4 24.1 54.4C27 60.3 33.1 64 40 64S53 60.3 55.8 54.4C60.4 54.3 64.5 52.5 67.6 49.3C70.6 46.1 72.2 41.7 72 37.2C77.6 35.4 80.3 31.3 79.8 25.5C79.3 19.9 73.2 16 68 16zM15.5 46.8C12.5 43.8 11.4 39 12.3 34.1C8.2 33.6 3.6 31.8 4.2 25.9C4.6 22.4 8.5 20.1 12 20.1H68.1C71.1 20.1 75.5 22.4 75.9 25.9C76.5 31.9 72.3 33.4 67.8 34.2C68.8 39.5 67.5 43.9 64.8 46.7C61.6 49.9 58.1 51 53.3 50.4C51.1 57.1 45.4 60 40 60C34.1 60 28.9 56.9 26.8 50.3C21.3 50.9 17.8 49.1 15.5 46.8z" />
    <glyph glyph-name="add-disk"
      unicode="&#xF11F;"
      horiz-adv-x="80" d=" M32.5 33.9C29.7 33.9 27.4 36.2 27.4 39S29.7 44.1 32.5 44.1S37.6 41.8 37.6 39S35.3 33.9 32.5 33.9zM32.5 40.1C31.9 40.1 31.4 39.6 31.4 39S31.9 37.9 32.5 37.9C33.1 37.9 33.6 38.4 33.6 39S33.1 40.1 32.5 40.1zM76.2 60H59V75.8C59 78 57.2 79.8 55 79.8S51 78 51 75.8V60H37.3C35.1 60 33.3 58.2 33.3 56S35.1 52 37.3 52H51V36.9C51 34.7 52.8 32.9 55 32.9S59 34.7 59 36.9V52H76.2C78.4 52 80.2 53.8 80.2 56S78.4 60 76.2 60z M56 29V4H14.7C11.5 4 9 6.7 9 10V60H30.5C31.9 62 34.4 64 37.3 64H47H5V10C5 4.5 9.3 0 14.7 0H60V30.8C59 29.9 58 29.2 56 29z M50.6 15.8C50 16.8 47 20.7 44.2 24.3C46.4 26.1 48.1 28.5 49.2 31.4L49.1 31.5C48 32.4 46.6 33.9 46.3 36.1C45.8 32.8 44.2 29.7 41.7 27.5C40.2 29.4 39 30.9 38.9 31.1C37.7 33.2 34.1 32.2 35.2 29.1C35.3 28.9 35.9 27.3 36.7 25C35.4 24.6 34 24.4 32.4 24.4C22.7 24.4 18.3 32 18.3 39.1C18.3 46.6 22.9 52.3 29.6 53.5C29.3 54.3 29.2 55.2 29.2 56.1C29.2 56.6 29.3 57.1 29.3 57.5C20.4 56.1 14.3 48.8 14.3 39.1C14.3 29.8 20.5 20.4 32.4 20.4C34.4 20.4 36.3 20.7 38.1 21.2C39.7 16.9 41.4 12.2 42 11.1C45.4 5.7 53.4 9.7 50.6 15.8z" />
    <glyph glyph-name="cloud-disk-array"
      unicode="&#xF120;"
      horiz-adv-x="80" d=" M48.6 22.9C48.6 22.0715728752538 49.2715728752538 21.4 50.1 21.4C50.9284271247462 21.4 51.6 22.0715728752538 51.6 22.9C51.6 23.7284271247462 50.9284271247462 24.4 50.1 24.4C49.2715728752538 24.4 48.6 23.7284271247462 48.6 22.9z M48.6 28.6C48.6 27.7715728752538 49.2715728752538 27.1 50.1 27.1C50.9284271247462 27.1 51.6 27.7715728752538 51.6 28.6C51.6 29.4284271247462 50.9284271247462 30.1 50.1 30.1C49.2715728752538 30.1 48.6 29.4284271247462 48.6 28.6z M51.9 54H19.2C15.6 54 13 50.6 13 47V39C13 37.2 13.7 35.6 14.9 34.4A6.42 6.42 0 0 0 13 29.8V21.8C13 18.2 15.5 15 19.2 15H51.9C55.5 15 58 18.1 58 21.8V29.8C58 31.6 57.3 33.2 56.1 34.4C57.3 35.6 58 37.2 58 39V47C58 50.6 55.5 54 51.9 54zM55 39.6C55 38.2 53.8 37 52.4 37H19.6C18.2 37 17 38.2 17 39.6V47.4C17 48.8 18.2 50 19.6 50H52.4C53.8 50 55 48.8 55 47.4V39.6zM55 21.6C55 20.2 53.8 19 52.4 19H19.6C18.2 19 17 20.2 17 21.6V29.4C17 30.8 18.2 32 19.6 32H52.4C53.8 32 55 30.8 55 29.4V21.6z M48.6 40C48.6 39.1715728752538 49.2715728752538 38.5 50.1 38.5C50.9284271247462 38.5 51.6 39.1715728752538 51.6 40C51.6 40.8284271247462 50.9284271247462 41.5 50.1 41.5C49.2715728752538 41.5 48.6 40.8284271247462 48.6 40z M48.6 45.8C48.6 44.9715728752538 49.2715728752538 44.3 50.1 44.3C50.9284271247462 44.3 51.6 44.9715728752538 51.6 45.8C51.6 46.6284271247462 50.9284271247462 47.3 50.1 47.3C49.2715728752538 47.3 48.6 46.6284271247462 48.6 45.8z M65.2 51.3C64.1 56.1 61.7 60.3 58 63.6C53.6 67.6 47.9 69.8 42 69.8C37.4 69.8 33 68.5 29.1 66C26.3 64.2 23.9 61.8 22.1 59.1C14 59.8 7.1 53.3 7.1 45.3C7.1 44.8 7.1 44.2 7.2 43.7C3 40.2 0.5 34.9 0.5 29.5C0.5 24.7 2.3 20.1 5.5 16.5C8.8 12.7 13.3 10.5 18 10.2L50.2 10.1C50.3 10.1 50.4 10 50.5 10H59.9L60.2 10.1C65.4 10.5 70.3 12.9 73.9 16.9C77.5 20.8 79.4 25.9 79.4 31.2C79.5 40.3 73.6 48.5 65.2 51.3zM71 19.6C68.1 16.4 64.2 14.5 60 14.1H18.1C14.5 14.3 11 16.1 8.4 19C5.8 21.9 4.4 25.6 4.4 29.4C4.4 34 6.6 38.4 10.4 41.1L11.4 41.8L11.2 43C11.1 43.7 11 44.4 11 45.1C11 51.2 16.6 56 22.8 54.8L24.2 54.5L24.9 55.7C26.4 58.4 28.7 60.7 31.3 62.4C34.5 64.5 38.2 65.5 42 65.5C46.9 65.5 51.7 63.7 55.3 60.3C58.6 57.3 60.7 53.4 61.4 49L61.6 47.7L62.8 47.4C70 45.5 75.3 38.5 75.3 30.9C75.5 27 73.9 22.8 71 19.6z" />
    <glyph glyph-name="cloudcloud"
      unicode="&#xF121;"
      horiz-adv-x="80" d=" M18.4 11.2L19.6 9.9C18.7 8.8 16.4 6.4 11.3 6.4C4.5 6.4 0.4 11.5 0.4 18.1C0.4 24.3 4.4 29.8 11.6 29.8C15.9 29.8 18.3 27.8 19.2 26.9L18.2 25.5C17.9 25 17.5 25 16.8 25.4C15.9 26 14.6 27.1 11.6 27.1C6.5 27.1 3.6 23.4 3.6 18.1C3.6 12.4 7.1 9.1 11.5 9.1C15.6 9.1 16.8 10.8 17.4 11.2C17.8 11.5 18.1 11.5 18.4 11.2zM25.5 30.3V6.7H22.7V30.3H25.5zM37 23.1C42.1 23.1 44.7 19.4 44.7 14.7C44.7 9.6 41.8 6.4 37 6.4C32.2 6.4 29.3 9.7 29.3 14.7C29.2 20 32.4 23.1 37 23.1zM37 8.7C40.5 8.7 41.8 11.3 41.8 14.8C41.8 18.4 40.5 20.9 37 20.9C33.7 20.9 32.2 18.5 32.2 14.8C32.2 11.1 33.6 8.7 37 8.7zM61.6 22.9V6.7H59.9C59.5 6.7 59.2 6.9 59.1 7.3L58.9 9C58.2 8.2 56.5 6.4 53.5 6.4C49.2 6.4 48.1 9.8 48.1 12.5V22.9H51V12.6C51 10.2 52.1 8.7 54.4 8.7S58.2 10.3 58.8 11V22.9H61.6zM79.5 30.3V6.7H77.8C77.4 6.7 77.1 6.9 77 7.3L76.7 9.3C76 8.5 74.3 6.5 71.3 6.5C66.8 6.5 65.2 10.4 65.2 14.8C65.2 18.8 67.3 23.2 72.2 23.2C74.9 23.2 76.1 21.9 76.6 21.3V30.3H79.5zM76.7 19C76.2 19.7 75.1 20.9 72.9 20.9C69.7 20.9 68.2 18.5 68.2 14.7C68.2 10.7 69.5 8.7 72.3 8.7C74.7 8.7 76.1 10.4 76.7 11.1V19zM68 36.5H12C5.4 36.5 0 41.9 0 48.5V61.5C0 68.1 5.4 73.5 12 73.5H68C74.6 73.5 80 68.1 80 61.5V48.5C80 41.9 74.6 36.5 68 36.5zM12 69.6C7.6 69.6 4 66 4 61.6V48.6C4 44.2 7.6 40.6 12 40.6H68C72.4 40.6 76 44.2 76 48.6V61.6C76 66 72.4 69.6 68 69.6H12z M62.3 58.4C62.3 56.7431457505076 63.6431457505076 55.4 65.3 55.4C66.9568542494924 55.4 68.3 56.7431457505076 68.3 58.4C68.3 60.0568542494924 66.9568542494924 61.4 65.3 61.4C63.6431457505076 61.4 62.3 60.0568542494924 62.3 58.4z" />
    <glyph glyph-name="cloudcpu"
      unicode="&#xF122;"
      horiz-adv-x="80" d=" M60 0.2C55.6 0.2 52.1 3.7 52.1 7.9V12H47.9V8.1C47.9 2.9 43.8 0.1 40 0.1C35.6 0.1 32.1 3.6 32.1 7.8V11.9H27.9V8C27.9 2.7 23.9 0 20 0C15.6 0 12.1 3.5 12.1 7.7V11.8H8.1C3 11.8 0.2 15.9 0.2 19.7C0.2 23.6 3.1 27.6 7.9 27.6H12V31.8H8C2.2 31.8 0.1 36.6 0.1 39.7C0.1 43.6 3 47.6 7.8 47.6H11.9V51.8H8.1C2.8 51.8 0 55.8 0 59.7C0 63.5 3 67.6 7.7 67.6H11.8V71.7C11.8 76 15.3 79.5 19.7 79.5S27.6 76 27.6 71.6V67.6H31.7V71.7C31.7 76 35.3 79.5 39.6 79.5C44.1 79.5 47.5 76.1 47.5 71.6V67.7H51.6V71.8C51.6 76.1 55.2 79.6 59.5 79.6C64 79.6 67.4 76.2 67.4 71.7V67.8H71.5C75.8 67.8 79.3 64.3 79.3 59.9C79.3 55.4 75.9 52 71.4 52H67.5V47.9H71.6C75.9 47.9 79.4 44.3 79.4 40C79.4 35.6 75.9 32.1 71.5 32.1H67.6V28H71.7C76 28 79.5 24.5 79.5 20.1S76 12.2 71.6 12.2H67.7V8.2C67.9 3 63.8 0.2 59.9999999999999 0.2zM43.9 16.1H56L56.1 8C56.1 5.7 58.1 4.3 60 4.3S63.9 5.6 63.9 8.2V16.2H71.8C74 16.2 75.7 17.9 75.7 20.1S74.1 24 71.9 24H63.8V36.1H71.7C73.9 36.1 75.6 37.8 75.6 40C75.6 41.9 74.2 43.9 71.8 43.9H63.7V56.1H71.6C73.9 56.1 75.5 57.7 75.5 60C75.5 62.2 73.9 63.9 71.7 63.9H63.6V71.8C63.6 73.7 62.3 75.7 59.7 75.7C57.2 75.7 55.8 73.8 55.8 71.9V63.8H43.9V71.8C43.9 73.7 42.7 75.7 40 75.7C37.6 75.7 36.1 73.8 36.1 71.9V63.8H23.9V71.8C23.9 74.1 22.3 75.7 20 75.7C17.5 75.7 16.1 73.8 16.1 71.9V63.8H8C5.2 63.8 4.3 61.2 4.3 59.9C4.3 59.7 4.3 56 8.4 56H16.2V43.9H8C4.9 43.9 4.3 41 4.3 40C4.3 40 4.3 36.1 8.2 36.1H16.2V24L8 23.9C5.2 23.9 4.3 21.3 4.3 20C4.3 18.9 5 16.1 8.2 16.1H16.2V8C16.2 5.7 18.2 4.3 20.1 4.3C21.9 4.3 24 5.3 24 8.3V16.2H36.1L36.2 8.1C36.2 5.8 38.2 4.4 40.1 4.4S44 5.8 44 8.4V16.1z M47 47V35.4C47 34.1 45.9 33 44.6 33H33V44.6C33 45.9 34.1 47 35.4 47H47M51 51H35.4C31.8 51 29 48.1 29 44.6V29H44.6C48.2 29 51 31.9 51 35.4V51z" />
    <glyph glyph-name="cloudhdd"
      unicode="&#xF123;"
      horiz-adv-x="80" d=" M25.2 29.7V6.4H19.8V16.3H10.3V6.4H4.8V29.7H10.2V20H19.7V29.7H25.2zM50.8 18C50.8 11.3 45.9 6.3 38.7 6.3H29.6V29.7H38.7C46.1 29.7 50.8 24.6 50.8 18zM45.3 18C45.3 22.5 42.9 25.5 38.7 25.5H35.1V10.5H38.7C43.1 10.5 45.3 13.8 45.3 18zM75.2 18C75.2 11.3 70.3 6.3 63.1 6.3H54V29.7H63.1C70.5 29.7 75.2 24.6 75.2 18zM69.6 18C69.6 22.5 67.2 25.5 63 25.5H59.4V10.5H63C67.4 10.5 69.6 13.8 69.6 18zM68 36.6H12C5.4 36.6 0 42 0 48.6V61.6C0 68.2 5.4 73.6 12 73.6H68C74.6 73.6 80 68.2 80 61.6V48.6C80 42 74.6 36.6 68 36.6zM12 69.6C7.6 69.6 4 66 4 61.6V48.6C4 44.2 7.6 40.6 12 40.6H68C72.4 40.6 76 44.2 76 48.6V61.6C76 66 72.4 69.6 68 69.6H12z M62.3 58.5C62.3 56.8431457505076 63.6431457505076 55.5 65.3 55.5C66.9568542494924 55.5 68.3 56.8431457505076 68.3 58.5C68.3 60.1568542494924 66.9568542494924 61.5 65.3 61.5C63.6431457505076 61.5 62.3 60.1568542494924 62.3 58.5z" />
    <glyph glyph-name="cloudram"
      unicode="&#xF124;"
      horiz-adv-x="80" d=" M54.6 76.3C58.6 76.3 61.8 73.1 61.8 69.1V4.3H26.6C22.6 4.3 19.4 7.5 19.4 11.5V19.3H20.3C23.2 19.3 26.3 21.5 26.3 25.4C26.3 28.7 23.5 31.4 20.2 31.4H19.4V34.3H20.3C23.2 34.3 26.3 36.6 26.3 40.4C26.3 43.6 23.5 46.3 20.2 46.3H19.4V49.4H20.3C23.2 49.4 26.3 51.6 26.3 55.4C26.3 58.8 23.5 61.4 20.2 61.4H19.4V69C19.4 73.1 22.6 76.3 26.6 76.3H54.6M54.6 80.2H26.6C20.4 80.2 15.4 75.2 15.4 69V57.3H20.2C21.3 57.3 22.2 56.5 22.3 55.4C22.4 54.2 21.4 53.3 20.3 53.3H15.4V42.2H20.2C21.3 42.2 22.2 41.4 22.3 40.3C22.4 39.1 21.4 38.1 20.3 38.1H15.4V27.2H20.2C21.3 27.2 22.2 26.4 22.3 25.3C22.4 24.1 21.4 23.1 20.3 23.1H15.4V11.3C15.4 5.1 20.4 0.1 26.6 0.1H65.8V69.1C65.8 75.3 60.8 80.2 54.6 80.2z M56.7 66.8C56.7 67.6 56.1 68.2 55.3 68.2H34.2C33.4 68.2 32.8 67.6 32.8 66.8V58.7C32.8 57.9 33.4 57.3 34.2 57.3H55.3C56.1 57.3 56.7 57.9 56.7 58.7V66.8zM52.7 61.3H36.7V64.3H52.7V61.3zM56.7 51.8C56.7 52.6 56.1 53.2 55.3 53.2H34.2C33.4 53.2 32.8 52.6 32.8 51.8V43.7C32.8 42.9 33.4 42.3 34.2 42.3H55.3C56.1 42.3 56.7 42.9 56.7 43.7V51.8zM52.7 46.3H36.7V49.3H52.7V46.3zM56.7 36.8C56.7 37.6 56.1 38.2 55.3 38.2H34.2C33.4 38.2 32.8 37.6 32.8 36.8V28.7C32.8 27.9 33.4 27.3 34.2 27.3H55.3C56.1 27.3 56.7 27.9 56.7 28.7V36.8zM52.7 31.3H36.7V34.3H52.7V31.3zM56.7 21.8C56.7 22.6 56.1 23.2 55.3 23.2H34.2C33.4 23.2 32.8 22.6 32.8 21.8V13.7C32.8 12.9 33.4 12.3 34.2 12.3H55.3C56.1 12.3 56.7 12.9 56.7 13.7V21.8zM52.7 16.3H36.7V19.3H52.7V16.3z" />
    <glyph glyph-name="cloudssd"
      unicode="&#xF125;"
      horiz-adv-x="80" d=" M43.2 25C42.7 24.2 42.1 24 41.2 24.5C40.2 25 39 25.8 37.4 25.8C36.4 25.8 35 25.5 34.6 24.4C34.2 23.3 34.3 22.3 36 21.4C36.9 21 39.9 20.2 41.5 19.4C44.1 18 45.4 15.4 44.5 11.8C43.8 8.9 41.1 6.2 36.4 6.2C32.8 6.2 29.5 8.1 28.4 9.3L30 11.8C30.5 12.4 31.3 12.7 32.2 12.1C33.8 11.1 34.8 10.5 36.6 10.5C38.1 10.5 39.3 11 39.6 12.4C39.9 13.9 39.4 14.7 38.1 15.4C37.4 15.8 34 16.6 32.6 17.3C29.2 19.1 28.7 22.7 29.8 25.7C30.5 27.6 33 30.1 37.3 30.1C41.3 30.1 43.8 28.3 44.4 27.6L43.2 25zM25.5 25C25 24.2 24.4 24 23.5 24.5C22.5 25 21.3 25.8 19.7 25.8C18.7 25.8 17.3 25.5 16.9 24.4C16.5 23.3 16.6 22.3 18.3 21.4C19.2 21 22.2 20.2 23.8 19.4C26.4 18 27.7 15.4 26.8 11.8C26.1 8.9 23.4 6.2 18.7 6.2C15.1 6.2 11.8 8.1 10.7 9.3L12.3 11.8C12.8 12.4 13.6 12.7 14.5 12.1C16.1 11.1 17.1 10.5 18.9 10.5C20.4 10.5 21.6 11 21.9 12.4C22.2 13.9 21.7 14.7 20.4 15.4C19.7 15.8 16.3 16.6 14.9 17.3C11.5 19.1 11 22.7 12.1 25.7C12.8 27.6 15.3 30.1 19.6 30.1C23.6 30.1 26.1 28.3 26.7 27.6L25.5 25zM69.2 18.1C69.2 11.4 64.3 6.4 57.1 6.4H48V29.8H57.1C64.5 29.8 69.2 24.7 69.2 18.1zM63.7 18.1C63.7 22.6 61.3 25.6 57.1 25.6H53.5V10.6H57.1C61.5 10.6 63.7 13.9 63.7 18.1zM68 36.8H12C5.4 36.8 0 42.2 0 48.8V61.8C0 68.4 5.4 73.8 12 73.8H68C74.6 73.8 80 68.4 80 61.8V48.8C80 42.2 74.6 36.8 68 36.8zM12 69.8C7.6 69.8 4 66.2 4 61.8V48.8C4 44.4 7.6 40.8 12 40.8H68C72.4 40.8 76 44.4 76 48.8V61.8C76 66.2 72.4 69.8 68 69.8H12z M62.3 58.6C62.3 56.9431457505076 63.6431457505076 55.6 65.3 55.6C66.9568542494924 55.6 68.3 56.9431457505076 68.3 58.6C68.3 60.2568542494924 66.9568542494924 61.6 65.3 61.6C63.6431457505076 61.6 62.3 60.2568542494924 62.3 58.6z" />
    <glyph glyph-name="oldNAS"
      unicode="&#xF126;"
      horiz-adv-x="80" d=" M29.3 25.8V2.5H26.5C26.1 2.5 25.7 2.6 25.5 2.7C25.2 2.8 24.9 3.1 24.7 3.4L13.7 17.3C13.7 16.9 13.8 16.5 13.8 16.1V2.5H8.9V25.8H12.3C12.5 25.8 12.6 25.7 12.7 25.7C12.8 25.6 13 25.6 13.1 25.5L13.5 25.1L24.6 11.1C24.5 11.5 24.5 12 24.5 12.4V25.8H29.3zM54.7 2.5H50.5C50 2.5 49.7 2.6 49.4 2.8C49.1 3 48.9 3.3 48.7 3.6L47.3 7.7H38.4L37 3.6C36.9 3.3 36.7 3 36.4 2.8C36.1 2.6 35.7 2.4 35.3 2.4H31.1L40.1 25.7H45.6L54.7 2.5zM46.1 11.4L43.9 17.8C43.7 18.2 43.6 18.7 43.4 19.2C43.2 19.7 43 20.3 42.9 21C42.7 20.3 42.6 19.7 42.4 19.2C42.2 18.6 42 18.2 41.9 17.8L39.8 11.4H46.1zM69.4 21.1C69.2 20.8 69.1 20.7 68.9 20.5C68.7 20.4 68.5 20.3 68.2 20.3C68 20.3 67.7 20.4 67.4 20.5C67.1 20.7 66.8 20.8 66.4 21S65.6 21.4 65.2 21.5C64.7 21.7 64.2 21.7 63.6 21.7C62.6 21.7 61.8 21.5 61.3 21.1C60.8 20.7 60.6 20.1 60.6 19.3C60.6 18.8 60.7 18.4 61 18.1C61.3 17.8 61.7 17.5 62.2 17.3C62.7 17.1 63.2 16.9 63.9 16.7C64.5 16.5 65.2 16.3 65.8 16.1C66.5 15.9 67.1 15.6 67.7 15.3C68.3 15 68.9 14.6 69.4 14.1S70.3 13 70.6 12.3C70.9 11.6 71 10.8 71 9.8C71 8.7 70.8 7.7 70.4 6.8C70 5.9 69.5 5 68.8 4.3C68.1 3.6 67.2000000000001 3.1 66.2000000000001 2.7C65.2000000000001 2.3 64 2.1 62.7000000000001 2.1C62 2.1 61.2000000000001 2.2 60.5 2.3S59 2.7 58.3 2.9C57.6 3.2 56.9 3.5 56.3 3.9C55.7 4.3 55.1 4.7 54.7 5.1L56.3 7.6C56.4 7.8 56.6 7.9 56.8 8.1C57 8.2 57.2 8.3 57.5 8.3C57.8 8.3 58.1000000000001 8.2 58.5 8C58.8 7.8 59.2000000000001 7.6 59.6000000000001 7.3C60 7.1 60.5 6.8 61 6.6C61.5 6.4 62.2000000000001 6.3 62.9 6.3C63.9 6.3 64.6 6.5 65.2000000000001 6.9C65.7000000000001 7.3 66 8 66 9C66 9.5 65.9000000000001 10 65.6 10.3C65.3 10.6 64.9 10.9 64.4 11.1C63.9 11.3 63.4 11.5 62.7 11.7C62.1 11.9 61.4 12.1 60.8 12.3C60.1 12.5 59.5 12.8 58.9 13.1C58.3 13.4 57.7 13.8 57.2 14.3S56.3 15.4 56 16.2C55.7 16.9 55.6 17.9 55.6 18.9C55.6 19.8 55.8 20.6 56.1 21.5C56.5 22.3 57 23.1 57.7 23.7C58.4 24.4 59.2 24.9 60.2 25.3C61.2 25.7 62.3 25.9 63.6 25.9C64.3 25.9 65 25.8 65.7 25.7C66.4 25.6 67 25.4 67.6 25.2C68.2 25 68.8 24.7 69.3 24.4C69.8 24.1 70.3 23.8 70.7000000000001 23.4L69.4000000000001 21.1zM71.2 42.4C69.9 42.4 68.7 42.8 67.7 43.6C66.5 44.5 65.8 45.9 65.6 47.4C65.4 48.9 65.8 50.4 66.8 51.6C69.9 55.6 69.2 61.4 65.3 64.5C62.7 66.6 59.3 67 56.3 65.8L59.1 63.7C59.9 63.1 60.3 62.1 60.1 61.1S59.2 59.3 58.2 59L40.9 53.8C40 53.5 39.1 53.7 38.4 54.3S37.3 55.7 37.4 56.6L38.5 74C38.6 75 39.2 75.9 40.1 76.3C41 76.7 42.1 76.6 42.9 76L46.6 73.2C53.9 79.2 64.7 79.4 72.3 73.4C76.6 70 79.3 65.1 80 59.7C80.7 54.3 79.1 48.9 75.8 44.6C74.5 43.2 72.9 42.4 71.2 42.4zM59.5 70.5C62.4 70.5 65.2 69.6 67.6 67.7C73.3 63.2 74.3 54.9 69.8 49.2C69.5 48.9 69.4 48.4 69.5 48C69.6 47.6 69.8 47.2 70.1 46.9C70.5 46.6 70.9 46.5 71.1 46.5C71.6 46.5 72.1 46.7 72.4 47.1C75.1 50.6 76.3 54.9 75.8 59.3C75.3 63.7 73.1 67.6 69.6 70.3C63.2 75.3 53.9 74.9 48 69.1C47.3 68.4 46.2 68.3 45.4 68.9L42.3 71.2L41.4 58L54.5 62L51.3 64.4C50.8 64.8 50.5 65.4 50.5 66C50.5 66.6 50.8 67.2 51.3 67.6C53.7 69.5 56.6 70.5 59.5 70.5z M73.4 38.7C73.3 38.7 73.2 38.6 73.1 38.6C71.7 37.5 69.9 36.8 68 36.8H12C7.6 36.8 4 40.4 4 44.8V57.8C4 62.2 7.6 65.8 12 65.8H33.9L34.2 69.8H12C5.4 69.8 0 64.4 0 57.8V44.8C0 38.2 5.4 32.8 12 32.8H68C72.6 32.8 76.6 35.4 78.6 39.2L73.4 38.7z" />
    <glyph glyph-name="veeam"
      unicode="&#xF127;"
      horiz-adv-x="80" d=" M39.7 45.9C38.6 45.9 37.7 45 37.7 43.9V35.3L38.2 34.7C43.2 28.9 43.4 28.7 43.6 28.6C44 28.3 44.4 28.2 44.8 28.2C45.4 28.2 46 28.5 46.4 29C47 29.8 46.9 31 46.2 31.7C45.8 32.1 43.5 34.7 41.7 36.8V43.9C41.7 45 40.8 45.9 39.7 45.9z M39.7 55C31.4 55 24.3 49.4 21.9 41.6L20.3 43.6C19.6 44.5 18.4 44.6 17.5 44C16.6 43.3 16.5 42.1 17.1 41.2L22.6 34L30.1 38.4C31.1 39 31.4 40.2 30.8 41.1C30.2 42.1 29 42.4 28.1 41.8L25.7 40.4C27.6 46.6 33.1 51 39.7 51C47.7 51 54.3 44.3 54.3 36S47.8 21 39.7 21C38.6 21 37.7 20.1 37.7 19S38.6 17 39.7 17C49.9 17 58.3 25.5 58.3 36C58.2 46.5 49.9 55 39.7 55z M65.2 51.3C64.1 56.1 61.7 60.3 58 63.6C53.6 67.6 47.9 69.8 42 69.8C37.4 69.8 33 68.5 29.1 66C26.3 64.2 23.9 61.8 22.1 59.1C14 59.8 7.1 53.3 7.1 45.3C7.1 44.8 7.1 44.2 7.2 43.7C3 40.2 0.5 34.9 0.5 29.5C0.5 24.7 2.3 20.1 5.5 16.5C8.8 12.7 13.3 10.5 18 10.2L50.2 10.1C50.3 10.1 50.4 10 50.5 10H59.9L60.2 10.1C65.4 10.5 70.3 12.9 73.9 16.9C77.5 20.8 79.4 25.9 79.4 31.2C79.5 40.3 73.6 48.5 65.2 51.3zM71 19.6C68.1 16.4 64.2 14.5 60 14.1H18.1C14.5 14.3 11 16.1 8.4 19C5.8 21.9 4.4 25.6 4.4 29.4C4.4 34 6.6 38.4 10.4 41.1L11.4 41.8L11.2 43C11.1 43.7 11 44.4 11 45.1C11 51.2 16.6 56 22.8 54.8L24.2 54.5L24.9 55.7C26.4 58.4 28.7 60.7 31.3 62.4C34.5 64.5 38.2 65.5 42 65.5C46.9 65.5 51.7 63.7 55.3 60.3C58.6 57.3 60.7 53.4 61.4 49L61.6 47.7L62.8 47.4C70 45.5 75.3 38.5 75.3 30.9C75.5 27 73.9 22.8 71 19.6z" />
    <glyph glyph-name="cloudnas"
      unicode="&#xF128;"
      horiz-adv-x="80" d=" M69.2 36.8H10.8C4.8 36.8 0 41.6 0 47.5V63.8C0 69.3 4.5 73.8 10 73.8H70C75.5 73.8 80 69.3 80 63.8V47.6C80 41.6 75.1 36.8 69.2 36.8zM10 69.8C6.7 69.8 4 67.1 4 63.8V47.5C4 43.8 7 40.7 10.8 40.7H69.2C72.9 40.7 76 43.7 76 47.5V63.8C76 67.1 73.3 69.8 70 69.8H10z M62.3 58.6C62.3 56.9431457505076 63.6431457505076 55.6 65.3 55.6C66.9568542494924 55.6 68.3 56.9431457505076 68.3 58.6C68.3 60.2568542494924 66.9568542494924 61.6 65.3 61.6C63.6431457505076 61.6 62.3 60.2568542494924 62.3 58.6z M69.5 24.9C69 24.1 68.4 23.9 67.5 24.4C66.5 24.9 65.3 25.7 63.7 25.7C62.7 25.7 61.3 25.4 60.9 24.3C60.5 23.2 60.6 22.2 62.3 21.3C63.2 20.9 66.2 20.1 67.8 19.3C70.4 17.9 71.7 15.3 70.8 11.7C70.1 8.8 67.4 6.1 62.7 6.1C59.1 6.1 55.8 8 54.7 9.2L56.3 11.7C56.8 12.3 57.6 12.6 58.5 12C60.1 11 61.1 10.4 62.9 10.4C64.4 10.4 65.6 10.9 65.9 12.3C66.2 13.8 65.7 14.6 64.4 15.3C63.7 15.7 60.3 16.5 58.9 17.2C55.5 19 55 22.6 56.1 25.6C56.8 27.5 59.3 30 63.6 30C67.6 30 70.1 28.2 70.7 27.5L69.5 24.9zM54.7 6.4H50.5C50 6.4 49.6 6.5 49.4 6.7C49.1 6.9 48.9 7.2 48.7 7.5L47.3 11.6H38.4L37 7.6C36.9 7.3 36.7 7 36.4 6.8C36.1 6.6 35.7 6.4 35.3 6.4H31L40.1 29.8H45.7L54.7 6.4zM46.1 15.3L42.9 24.9C42.7 24.2 39.7 15.3 39.7 15.3H46.1zM29.3 29.8V6.5H26.5C25.7 6.5 25.1 6.8 24.6 7.4L13.6 21.3C13.6 20.9 13.7 19.3 13.7 19V6.5H8.9V29.8H12C12.9 29.8 13.1 29.5 13.6 29L24.7 15C24.6 15.4 24.6 17.1 24.6 17.5V29.8H29.3z" />
    <glyph glyph-name="config"
      unicode="&#xF129;"
      horiz-adv-x="80" d=" M40.1 75.9C42.4 75.9 45.9 74.1 45.9 70.2C45.9 68.6 46.5 67.7 47.7 66.9C48.4 66.4 52.8 64.6 53.1 64.4C54.3 63.8 56.2 64 57.4 65.2C60.3 68.1 63.8 66.9 65.4 65.3C66.9 63.8 68.3 60 65.5 57.1C64.8 56.4 64.1 55.5 64.3 54.1C64.6 52.4 66.5 47.9 66.5 47.9C67.1 46.4 68.5 45.4 70.1 45.4C74.6 45.3 75.8 41.7 75.8 39.8C75.8 37.8 74.3 34 70.1 34C68.3 34 67.4 33.2 66.6 31.8C66.2 31.1 64.5 27 64.3 26.7C63.7 25.2 64 23.5 65.1 22.4C68.2 19.1 66.5 15.7 65.2 14.4C63.7 12.9 59.9 11.5 57 14.3C55.9 15.4 54.2 15.7 53.2 15.3C52.5 15.1 51.2 14.5 47.8 13.2C46.3 12.6 45.3 11.2 45.3 9.6C45.2 5.1 41.6 3.9 39.7 3.9C37.4 3.9 33.9 5.7 33.9 9.6C33.9 11.1 33.3 12.5 31.5 13.2C30.9 13.5 27 15.2 26.7 15.3C25.2 15.9 23.4 15.5 22.4 14.5C19.7 11.8 16.2 12.6 14.4 14.4C12.4 16.4 11.9 20 14.3 22.6C15.5 23.8 15.9 24.8 15.2 26.6C15 28 14.2 30 13.4 32C12.8 33.5 11.4 34.4 9.8 34.5C5.3 34.6 4.1 38.2 4.1 40.1C4.1 42.1 5.7 45.9 9.8 45.9C11.5 45.9 12.4 46.6 13.1 47.8C13.6 48.5 15.4 52.9 15.5 53.2C16.1 54.7 15.8 56.4 14.7 57.5C11.6 60.8 13.3 64.2 14.6 65.5C16.1 67 20 68.4 22.8 65.6C23.6 64.8 24.6 64.4 25.6 64.4C26.5 64.4 26.5 64.4 32 66.7C33.5 67.3 34.5 68.7 34.5 70.3C34.6 74.7 38.2 75.9 40.1 75.9M40.1 79.9C35.6 79.9 30.7 76.7 30.5 70.3C29.8 70 25.7 68.3 25.6 68.3C21.3 72.6 15 71.5 11.8 68.3C8.6 65.1 7.4 59.4 11.8 54.7C11.5 54 9.8 49.9 9.7 49.9C3.7 49.9 0 44.8 0 40.1C0 35.6 3.2 30.7 9.6 30.5C9.9 29.8 11.6 25.6 11.6 25.6C7.4 21.4 8.3 15.1 11.7 11.8C15.2 8.3 21.2 7.8 25.3 11.8C26 11.5 30.1 9.8 30.1 9.7C30.1 3.7 35.2 0 39.9 0C44.4 0 49.3 3.2 49.5 9.6C50.2 9.9 54.3 11.6 54.4 11.6C58.8 7.2 65 8.5 68.2 11.7C71.4 14.9 72.6 20.6 68.2 25.3C68.5 26 70.2 30.1 70.3 30.1C76.3 30.1 80 35.2 80 39.9C80 44.4 76.8 49.3 70.4 49.5C70.1 50.2 68.4 54.4 68.4 54.4C72.6 58.6 71.7 64.9 68.3 68.2C64.6 71.9 58.7 72.2 54.7 68.2C54 68.5 49.9 70.2 49.9 70.3C49.9 76.2 44.8 79.9 40.1 79.9z M40 49.2C45.1 49.2 49.2 45.1 49.2 40S45.1 30.8 40 30.8S30.8 34.9 30.8 40S34.9 49.2 40 49.2M40 53.2C32.7 53.2 26.8 47.3 26.8 40C26.8 32.7 32.7 26.8 40 26.8C47.3 26.8 53.2 32.7 53.2 40C53.2 47.3 47.3 53.2 40 53.2z" />
    <glyph glyph-name="consumption"
      unicode="&#xF12A;"
      horiz-adv-x="80" d=" M24.6 43H28.1C29.5 50.3 34.3 56.8 42.6 56.8C48.1 56.8 51.1 54.3 53.1 51.7C53.1 51.7 50.6 48.9 50.3 48.7C49.9 48.4 49.2 48.4 48.8 48.7C47.5 49.6 46.4 51.3 42.9 51.3C38.1 51.3 35.6 47.3 34.8 43H47.9V41C47.9 40.2 47.3 39.4 46.1 39.4H34.2C34.2 39.1 34.1 36.9 34.2 36.4H45.2V34.4C45.2 33.4 44.3 32.8 43.4 32.8H34.5C35 29.7 36.6 23.9 42.4 23.9C46.5 23.9 48 26.3 48.4 26.7C49.1 27.4 49.9 27.4 50.4 26.8L53.2 24.3C51.4 21.5 48.1 18.5 42 18.5C31.3 18.5 28.4 28 27.8 32.9H24.5V36.5H27.5V39.5H24.5V43z M75.8 37C75.8 58 62.1 73 42.2 74V76H48.2C49.3 76 50.2 76.9 50.2 78S49.3 80 48.2 80H32.2C31.1 80 30.2 79.1 30.2 78S31.1 76 32.2 76H38.2V74C18.4 73.1 4.2 57.8 4.2 37C4.2 19.2 15.4 0 40 0H40.3C61.2 0.1 75.8 15.3 75.8 37zM42.2 4.1V8C42.2 9.1 41.3 10 40.2 10S38.2 9.1 38.2 8V4C18.5 4.9 9 20.2 8.3 35H12.2C13.3 35 14.2 35.9 14.2 37S13.3 39 12.2 39H8.3C9.2 56.5 21.4 69.1 38.2 70V66C38.2 64.9 39.1 64 40.2 64S42.2 64.9 42.2 66V69.9C59.1 68.9 70.9 56.6 71.7 39H68.2C67.1 39 66.2 38.1 66.2 37S67.1 35 68.2 35H71.7C71 20.3 61.6 5.1 42.2 4.1z" />
    <glyph glyph-name="contacts"
      unicode="&#xF12B;"
      horiz-adv-x="80" d=" M40 42.1C32.8 42.1 29 47.8 29 53.4C29 59.8 33.7 64.7 40 64.7C46.4 64.7 51 59.9 51 53.4S46.4 42.1 40 42.1zM40 60.8C35.8 60.8 32.9 57.7 32.9 53.4C32.9 49.7 35.1 46 40 46S47.1 49.7 47.1 53.4S44.9 60.8 40 60.8zM18.2 49.6C11 49.6 7.2 55.3 7.2 60.9C7.2 67.3 12 72.2 18.2 72.2C24.6 72.2 29.2 67.4 29.2 60.9S24.6 49.6 18.2 49.6zM18.2 68.3C14 68.3 11.1 65.2 11.1 60.9C11.1 57.2 13.3 53.5 18.2 53.5S25.3 57.2 25.3 60.9S23.1 68.3 18.2 68.3zM62 49.6C54.8 49.6 51 55.3 51 60.9C51 67.3 55.7 72.2 62 72.2C68.4 72.2 73 67.4 73 60.9C72.9 54.4 68.3 49.6 62 49.6zM62 68.3C57.8 68.3 54.9 65.2 54.9 60.9C54.9 57.2 57.1 53.5 62 53.5S69.1 57.2 69.1 60.9S66.9 68.3 62 68.3z M80 29.6C80 38.5 74.5 47.5 61.9 47.5C55 47.5 49.4 44.5 46.2 39.1C44.3 39.7 42.2 40 39.9 40S35.6 39.7 33.8 39.2C30.7 44.5 25 47.5 18.1 47.5C5.6 47.5 0 38.5 0 29.6V15.8H22V7.8H58V15.8H80V29.6zM4 19.8V29.6C4 36 7.7 43.5 18.2 43.5C24.9 43.5 28.5 40.3 30.2 37.6C24.5 34.3 22 28.2 22 22.1V19.8H4zM54 11.8H26V22.1C26 28.5 29.5 36 40 36C49.8 36 54 28.8 54 22.1V11.8zM76 19.8H58V22.1C58 27.9 55.5 34.1 49.9 37.4C51.6 40.2 55.1 43.5 61.9 43.5C72.3 43.5 76 36 76 29.6V19.8z" />
    <glyph glyph-name="creditcard"
      unicode="&#xF12C;"
      horiz-adv-x="80" d=" M65.6 69H14.4C6.5 69 0 62.2 0 54.3V26.1C0 17.9 6.7 11 15 11H65.4C73.5 11 80 17.7 80 25.7V54.3C80 62.2 73.5 69 65.6 69zM14.4 65H65.5C69.6 65 73.1 62.4 74.8 59H5.1C6.9 62.4 10.4 65 14.4 65zM76 54.3V47H4V54.3V55H76V54.3zM65.4 15H15C8.9 15 4 20.1 4 26.1V43H76V25.7C76 19.9 71.2 15 65.4 15z M14 23C12.9 23 12 23.9 12 25V29C12 30.1 12.9 31 14 31S16 30.1 16 29V25C16 23.9 15.1 23 14 23zM24 23C22.9 23 22 23.9 22 25V29C22 30.1 22.9 31 24 31S26 30.1 26 29V25C26 23.9 25.1 23 24 23zM34 23C32.9 23 32 23.9 32 25V29C32 30.1 32.9 31 34 31S36 30.1 36 29V25C36 23.9 35.1 23 34 23z" />
    <glyph glyph-name="database"
      unicode="&#xF12D;"
      horiz-adv-x="80" d=" M75.8 66V67.9C73.9 75.8 56.5 80 40.2 80S6.2 75.8 4.2 67.8V51.6C4.2 50.7 4.6 49.9 5 49.1C4.9 49 4.7 48.8 4.7 48.7C4.5 48 4.2 47.4 4.2 46.7V32.4C4.2 31.6 4.6 30.8 4.9 30C4.8 29.8 4.6 29.6 4.5 29.4C4.4 28.9 4.2 28.3 4.2 27.8V13.5C4.1 4.7 22.8 0 40.2 0C47.2 0 54.5 0.8 60.6 2.3H60.4C69.4 4.5 75.7 8.3 75.7 13.5V27.8C75.7 28.3 75.9 28.8 75.7 29.4C75.6 29.6 75.4 29.8 75.3 30C75.6 30.8 75.7 31.6 75.7 32.4V46.7C75.7 47.3 75.8 48 75.6 48.6C75.5 48.8 75.3 48.9 75.2 49.1C75.6 49.9 75.6 50.7 75.6 51.6V66zM40.2 76C56.5 76 68.8 72 71.5 68C65.5 63.8 54 60.8 40.4 60.8C27 60.8 15 63.9 8.9 68C11.7 72.1 24 76 40.2 76zM61.8 6.8V12.2C61.8 13.3 60.9 14.2 59.8 14.2S57.8 13.3 57.8 12.2V5.8C53.9 4.7 47 4 40 4C20.3 4 8.2 9.6 8.2 13.6V25.9C12.2 23.4 17.2 21.5 24.3 20.2H24.8C25.7 20.2 26.6 20.9 26.8 21.8C27 22.9 26.1 23.9 25 24.1C13.6 26.1 8.2 29.8 8.2 32.4V45.1C12.2 42.7 17 40.8 23.8 39.5H24.3C25.2 39.5 26.1 40.2 26.3 41.1C26.5 42.2 25.6 43.2 24.5 43.4C13.4 45.4 8.2 49.1 8.2 51.6V63.2C16.2 59.2 26.8 56.8 40 56.8C53.3 56.8 64.9 59.1 71.8 63.2V51.7C71.8 49.5 68.8 46.9 61.8 45V50.4C61.8 51.5 60.9 52.4 59.8 52.4S57.8 51.5 57.8 50.4V44C53.8 42.9 47.1 42.2 40.1 42.2C39 42.2 38.2 41.3 38.2 40.2S38.9 38.2 40 38.2C52.5 38.2 65.7 40.6 71.7 45.3V32.5C71.7 30.3 68.7 27.7 61.7 25.8V31.2C61.7 32.3 60.8 33.2 59.7 33.2S57.7 32.3 57.7 31.2V24.7C53.7 23.6 47 22.9 40 22.9C38.9 22.9 38.1 22 38.1 20.9S38.8 18.9 39.9 18.9C52.4 18.9 65.6 21.3 71.6 26V13.6C71.8 11.4 68.8 8.8 61.8 6.8z" />
    <glyph glyph-name="datacenter"
      unicode="&#xF12E;"
      horiz-adv-x="80" d=" M62.4 0H5.6V68C5.6 74.6 11 80 17.6 80H74.5V12C74.4 5.4 69 0 62.4 0zM9.6 4H62.5C66.9 4 70.5 7.6 70.5 12V76H17.6C13.2 76 9.6 72.4 9.6 68V4z M53.9 45C53.9 43.8954305003384 54.7954305003384 43 55.9 43C57.0045694996616 43 57.9 43.8954305003384 57.9 45C57.9 46.1045694996616 57.0045694996616 47 55.9 47C54.7954305003384 47 53.9 46.1045694996616 53.9 45z M54.2 61.3C54.2 60.1954305003384 55.0954305003384 59.3 56.2 59.3C57.3045694996616 59.3 58.2 60.1954305003384 58.2 61.3C58.2 62.4045694996616 57.3045694996616 63.3 56.2 63.3C55.0954305003384 63.3 54.2 62.4045694996616 54.2 61.3z M53.8 29C53.8 27.8954305003384 54.6954305003384 27 55.8 27C56.9045694996616 27 57.8 27.8954305003384 57.8 29C57.8 30.1045694996616 56.9045694996616 31 55.8 31C54.6954305003384 31 53.8 30.1045694996616 53.8 29z M56.5 71.3H24.5C19 71.3 14 66.4 14 60.9V28.9C14 23.4 19 19.3 24.5 19.3H38V16.7C37 16.2 36.3 15.3 35.8 14.3H24V10.3H35.8C36.6 8.3 38.3 7.4 40.3 7.4S44.1 8.3 44.8 10.3H57V14.3H45C44.5 15.3 44 16.1 42 16.7V19.3H56.5C62 19.3 66 23.4 66 28.9V60.9C66 66.4 62 71.3 56.5 71.3zM40.4 11.1C39.8 11.1 39.4 11.5 39.4 12.1S39.8 13.1 40.4 13.1S41.4 12.7 41.4 12.1S40.9 11.1 40.4 11.1zM24.5 67.3H56.5C59.8 67.3 62 64.2 62 60.9V55.3H18V60.9C18 64.2 21.2 67.3 24.5 67.3zM62 51.3V39.3H18V51.3H62zM56.5 23.3H24.5C21.2 23.3 18 25.6 18 28.9V35.3H62V28.9C62 25.6 59.8 23.3 56.5 23.3z" />
    <glyph glyph-name="dedicated-cloud2"
      unicode="&#xF12F;"
      horiz-adv-x="80" d=" M78.2 69.7C79.2 68.8 77.2 70.7 78.2 69.7zM65 26.7C63.4 24.7 65.9 27.8 65 26.7z M79.4 43C80.4 45.1 80 47.6 80 49.8V60.9C80 63.8 80.7 67.4 78.2 69.6C76.3 71.5 74.5 71.4 72.2 71.4H11.1C9.4 71.4 7.5 71.5 5.8 71.4C-1.6 70.9 0 61.8 0 56.8V49.8C0 47.8 -0.3 45.7 0.3 43.8C1.2 41.1 3.6 39.6 6.3 39.5H19.3V38.4C18.3 38.1 17.4 37.6 16.6 36.9C16.1 36.5 15.8 35.9 15.3 35.6H7.4C5.7 35.6 4.1 35.4 2.8 34.6C0.2 33 0 30.4 0 27.7V17.7C0 14.8 -0.4 11.6 0.1 8.7C0.5 6.4 2 4.5 4.2 3.8C6.5 3.1 9.2 3.5 11.5 3.5H65.5C68.4 3.5 71.3 3.4 74.2 3.5C77.1 3.6 79.6 6 79.8 8.9C80 10.7 79.8 12.6 79.8 14.4C79.8 19.6 80.1 24.9 79.8 30.1C79.7 32 78.6 33.8 77 34.8C75.7 35.6 74.3 35.6 72.9 35.6H68.2H65.8C65.6 35.6 65.5 35.7 65.3 35.8C64.9 36 64.6 36.6 64.3 37C63.8 37.5 63.2 37.9 62.6 38.2C61.6 38.7 61.6 38.5 61.6 39.5H70.4C73.9 39.5 77.7 39.2 79.4 43zM65 26.7C66.1 28 66.6 29.8 66.6 31.5H71.8C72.6 31.5 73.3 31.6 74.1 31.5C76.3 31.3 76 29.7 76 28V13.2C76 11 76.5 7.7 73.5 7.5C71.6 7.4 69.6 7.5 67.7 7.5H7C6.2 7.5 5.5 7.5 4.9 8C3.4 9.4 4 12.4 4 14.2V21.6V29C4 30.6 4.3 31.3 6 31.4H14.1C14.1 26.6 18 23.3 22.7 23.3H54.9C58.8 23.3 62.4 23.5 65 26.7zM62.5 31.7C63.3 26.9 57.1 27.5 54.1 27.5H22.9C20.2 27.6 17.3 29.8 18.6 32.8C19.3 34.4 20.9 34.7 22.4 35.2C22.6 35.3 23.4 35.3 23.6 35.6C23.8 35.9 23.5 36.8 23.4 37.2C23.3 37.8 23.3 38.4 23.3 39C23.4 41.4 24.6 43.7 26.6 45C28.4 46.1 30.3 46.1 32.3 46.1C33.4 49.6 35.8 52.2 39.7 52.5C43.7 52.8 47.2 49.9 48 46C50.6 46 53.1 46.1 55.1 44.1C57.4 41.7 57.2 38.6 57.2 35.5C59.4 34.8 62.3 34.4 62.5 31.7zM64.2 43.5C63.3 43.5 61.6 43.1 60.7 43.5C60.2 43.7 60.1 44.4 59.8 44.8C59.3 45.5 58.8 46.2 58.2 46.8C57 48 55.4 48.9 53.8 49.4C53.1 49.6 52.1 49.6 51.5 49.9C50.9 50.2 50.7 50.6 50.3 51.2C49.4 52.6 48.1 53.7 46.7 54.6C43.6 56.4 39.7 56.8 36.3 55.5C34.6 54.9 33 53.9 31.8 52.5C31.2 51.8 30.8 50.7 30.1 50.1C29.6 49.6 28.7 49.7 28 49.5C26.1 49 24.4 48.1 23 46.7C22.1 45.8 20.8 44.4 20.5 43.1H10.2C8.9 43.1 7.6 43 6.4 43.1C4.9 43.2 4.3 44.5 4.2 45.9C4 48.3 4.2 50.7 4.2 53.1V59.7V63C4.2 64 4 65.5 4.3 66.4C4.7 67.4 5.6 67.4 6.6 67.5C8.4 67.6 10.2 67.5 12.1 67.5H71.1C72.8 67.5 76.1 68.1 76.1 65.7V46.6C76.1 45.1 75.6 43.6 73.9 43.4C72.8 43.3 71.6 43.4 70.4 43.4C68.3 43.5 66.2 43.5 64.2 43.5z M64 63.4V59.4H67.9C68 59.7 67.9 63.2 67.9 63.4C67.6 63.5 64.2 63.4 64 63.4z" />
    <glyph glyph-name="dedicatedCloud"
      unicode="&#xF130;"
      horiz-adv-x="80" d=" M42.7 23C42.7 24.5 41.5 25.8 40 25.8S37.3 24.6 37.3 23C37.3 22 37.9 21.1 38.8 20.6V18C38.8 17.3 39.3 16.8 40 16.8S41.2 17.3 41.2 18V20.6C42.1 21.1 42.7 22 42.7 23z M72 47.9C72.2 52.5 70.6 56.8 67.6 60C64.6 63.3 60.4 65 55.8 65.1C53 71 46.9 74.7 40 74.7S27 71 24.2 65.1C19.7 65 15.6 63.4 12.6 60.3C9.5 57.1 7.9 52.8 8 47.9C3.6 46.5 -0.5 42.5 0.2 35.9C0.8 30.1 6.8 26.3 12 26.3H21.8V5.3H58.8V26.3H68.1C73.3 26.3 79.4 30.4 79.9 35.9C80.3 41.7 77.6 46 72 47.9zM54.8 9.3H25.8V28.3C25.8 31.6 28.2 34.3 31.5 34.3H48.4C51.7 34.3 54.7 31.6 54.7 28.3L54.8 9.3zM47.8 38.3H31.8V45.4C31.8 50 35.4 53.7 39.8 53.7C45 53.7 47.8 49.3 47.8 45.4V38.3zM75.8 36.3C75.5 32.8 71 30.3 68 30.3H58.1C57.3 34.3 54.7 36.3 51.7 37.5V45.3C51.7 52.6 46.8 58 39.7 58C32.7 58 27.7 52.6 27.7 45.3V37.5C24.7 36.3 22.5 34.3 21.7 30.3H11.8C8.3 30.3 4.4 32.9 4 36.4C3.4 42.3 8.2 44 10.3 44.4L12.1 44.8V46.6C11.7 50.9 12.9 54.8 15.5 57.5C17.9 60 21.4 61.3 25.4 61.1L26.9 61L27.4 62.4C29.7 68.5 35.5 70.7 40.1 70.7S50.4 68.5 52.8 62.4L53.3 61L54.8 61.1C58.7 61.3 62.3 60 64.8 57.3C67.4 54.6 68.5 50.7 68 46.6L67.8 44.8L69.6 44.3C74.2 43.3 76.2 40.6 75.8 36.3z" />
    <glyph glyph-name="details"
      unicode="&#xF131;"
      horiz-adv-x="80" d=" M16.2 65.1H53V61.1H16.2zM16.2 53.9H53V49.9H16.2zM16.2 42.7H30.9V38.7H16.2zM75.1 26.2C75.1 37.2 66.1 46.2 55.1 46.2S35.1 37.2 35.1 26.2S44.1 6.2 55.1 6.2C58.7 6.2 62.1 7.2 65.1 8.9L71.5 0L74.7 2.3L68.3 11.2C72.5 14.9 75.1 20.2 75.1 26.2zM39.1 26.2C39.1 35 46.3 42.2 55.1 42.2S71.1 35 71.1 26.2S63.9 10.2 55.1 10.2S39.1 17.4 39.1 26.2z M47 26.2H43C43 32.9 48.4 38.3 55.1 38.3V34.3C50.6 34.3 47 30.7 47 26.2z M32.7 17.1H8.8V76.1H47.9C54 76.1 58.8 71.1 58.8 65V49.9C59.8 49.7 61.8 49.3 62.8 48.9V65C62.8 73.3 56.1 80.1 47.9 80.1H4.8V13.1H34.7C33.9 15.1 33.3 16.1 32.7 17.1z" />
    <glyph glyph-name="disclosure-down"
      unicode="&#xF132;"
      horiz-adv-x="80" d=" M79.5 72.5C78.8 73.7 77.5 74.5 76 74.5H4C2.6 74.5 1.3 73.7 0.5 72.5C-0.2 71.3 -0.2 69.7 0.5 68.5L36.5 6.1C37.2 4.9 38.5 4.1 40 4.1S42.7 4.9 43.5 6.1L79.4 68.5C80.2 69.7 80.2 71.3 79.5 72.5z" />
    <glyph glyph-name="disclosure-left"
      unicode="&#xF133;"
      horiz-adv-x="80" d=" M73.2 79.7C72 80.4 70.4 80.4 69.2 79.7L6.9 43.7C5.7 43 4.9 41.7 4.9 40.2S5.7 37.4 6.9 36.7L69.2 0.7C69.8 0.3 70.5 0.2 71.2 0.2S72.6 0.4 73.2 0.7C74.4 1.4 75.2 2.7 75.2 4.2V76.2C75.2 77.6 74.4 78.9 73.2 79.7z" />
    <glyph glyph-name="disclosure-right"
      unicode="&#xF134;"
      horiz-adv-x="80" d=" M73.2 43.7L10.8 79.7C9.6 80.4 8 80.4 6.8 79.7C5.6 78.9 4.8 77.6 4.8 76.2V4.2C4.8 2.8 5.6 1.4 6.8 0.7C7.4 0.3 8.1 0.2 8.8 0.2S10.2 0.4 10.8 0.7L73.2 36.7C74.4 37.4 75.2 38.7 75.2 40.2C75.2 41.8 74.4 43 73.2 43.7z" />
    <glyph glyph-name="disclosure-up"
      unicode="&#xF135;"
      horiz-adv-x="80" d=" M79.5 10.2L43.5 72.6C42.8 73.8 41.5 74.6 40 74.6S37.3 73.8 36.5 72.6L0.6 10.2C-0.1 9 -0.1 7.4 0.6 6.2C1.3 5 2.6 4.2 4.1 4.2H76.1C77.5 4.2 78.8 5 79.6 6.2C80.2 7.5 80.2 9 79.5 10.2z" />
    <glyph glyph-name="docs"
      unicode="&#xF136;"
      horiz-adv-x="80" d=" M74.6 0H5.4V80H56.6C66.5 80 74.6 71.9 74.6 62V0zM9.4 4H70.7V62C70.7 69.7 64.4 76 56.7 76H9.4V4z M17.6 63.8H62.4V59.8H17.6zM33.9 42.1C35.7 43.5 37.5 44.3 40 44.3C43.7 44.3 46.1 42.2 46.1 39C46.1 37.3 45.5 36.1 44.7 35.2C43.8 34.3 42.8 33.7 41.9 32.9C41.7 32.6 41.5 32.4 41.4 32.1L41 30H37.8L37.5 32.4C37.4 33.4 37.6 33.8 38.4 34.7C38.8 35.1 39.5 35.6 40.1 36C40.7 36.5 41.8 37.2 41.8 38.7C41.8 39.8 41 40.7 39.6 40.7C38.2 40.7 37.4 40.2 36.7 39.8C36.2 39.5 35.5 39.6 35.2 40.2L33.9 42.1z M40 12.1C26.8 12.1 19.8 22.6 19.8 32.9C19.8 45 28.3 53.8 40 53.8C51.9 53.8 60.2 45.2 60.2 32.9C60.2 20.6 51.9 12.1 40 12.1zM40 49.8C30.6 49.8 23.8 42.7 23.8 32.9C23.8 24.8 28.9 16.1 40 16.1C51.2 16.1 56.2 24.5 56.2 32.9C56.2 42.8 49.5 49.8 40 49.8z M36.9 24.6C36.9 23.219288125423 38.019288125423 22.1 39.4 22.1C40.780711874577 22.1 41.9 23.219288125423 41.9 24.6C41.9 25.980711874577 40.780711874577 27.1 39.4 27.1C38.019288125423 27.1 36.9 25.980711874577 36.9 24.6z" />
    <glyph glyph-name="domain"
      unicode="&#xF137;"
      horiz-adv-x="80" d=" M78.7 39.9C78.7 63.5 62.8 80 40 80C17.6 80 1.3 63.2 1.3 39.9C1.3 20.7 13.4 0 40 0C62.8 0 78.7 16.4 78.7 39.9zM5.4 38H17.8C17.9 33.6 18.4 29.2 19.3 25H8.3C6.6 29.1 5.6 33.6 5.4 38zM74.7 42H62.2C62.1 47 61.6 51.7 60.7 56H71.7C73.5 51.8 74.5 47.1 74.7 42zM58.2 42H42V56H56.6C57.6 51.8 58.1 47.1 58.2 42zM42 60V76.3C47.9 75.2 52.8 69.1 55.6 60H42zM38 76.3V60H24.5C27.4 69 32.2 75.2 38 76.3zM38 56V42H21.8C21.9 47.1 22.5 51.8 23.5 56H38zM17.8 42H5.3C5.5 47.1 6.5 51.8 8.3 56H19.3C18.4 51.7 17.9 47 17.8 42zM21.8 38H38V25H23.4C22.5 29.1 21.9 33.5 21.8 38zM38 21V4.6C31.6 5.7 27 12.3 24.4 21H38zM42 4.6V21H55.7C53.1 12.4 48.6 5.7 42 4.6zM42 25V38H58.2C58.1 33.6 57.6 29.1 56.7 25H42zM62.2 38H74.6C74.3 33.6 73.4 29.1 71.7 25H60.8C61.6 29.2 62.1 33.6 62.2 38zM69.8 60H59.8C58.1 66 55.6 70.9 52.4 74.4C59.9 71.8 65.9 66.8 69.8 60zM27.7 74.4C24.6 70.9 22 66 20.3 60H10.4C14.3 66.7 20.3 71.8 27.7 74.4zM10.2 21H20.2C21.8 15.2 24.2 10.1 27.5 6.4C19.6 9.1 13.9 14.5 10.2 21zM52.7 6.5C55.9 10.2 58.3 15.2 59.8 21H69.7C66.2 14.6 60.5 9.3 52.7 6.5z" />
    <glyph glyph-name="dots"
      unicode="&#xF138;"
      horiz-adv-x="80" d=" M0 40C0 33.9248677518613 4.9248677518613 29 11 29C17.0751322481387 29 22 33.9248677518613 22 40C22 46.0751322481387 17.0751322481387 51 11 51C4.9248677518613 51 0 46.0751322481387 0 40z M58 40C58 33.9248677518613 62.9248677518613 29 69 29C75.0751322481387 29 80 33.9248677518613 80 40C80 46.0751322481387 75.0751322481387 51 69 51C62.9248677518613 51 58 46.0751322481387 58 40z M29 40C29 33.9248677518613 33.9248677518613 29 40 29C46.0751322481387 29 51 33.9248677518613 51 40C51 46.0751322481387 46.0751322481387 51 40 51C33.9248677518613 51 29 46.0751322481387 29 40z" />
    <glyph glyph-name="download"
      unicode="&#xF139;"
      horiz-adv-x="80" d=" M62.6 30.9C62.6 31.3 62.7 31.7 62.8 32C62.9 32.3 63.1 32.6 63.4 32.9C63.7 33.2 63.9 33.4 64.3 33.5C64.6 33.6 65 33.7 65.4 33.7C65.8 33.7 66.2 33.6 66.5 33.5C66.8 33.4 67.1 33.2 67.4 32.9C67.7 32.6 67.9 32.3 68 32C68.1 31.7 68.2 31.3 68.2 30.9C68.2 30.5 68.1 30.2 68 29.8C67.9 29.5 67.7 29.2 67.4 28.9C67.1 28.6 66.8 28.4 66.5 28.3C66.2 28.2 65.8 28.1 65.4 28.1C65 28.1 64.7 28.2 64.3 28.3C64 28.4 63.7 28.6 63.4 28.9C63.1 29.2 62.9 29.4 62.8 29.8C62.6 30.1 62.6 30.5 62.6 30.9zM40 26C39.4 26 38.8 26.3 38.4 26.8L25.4 44.8C25 45.4 24.9 46.2 25.2 46.9C25.5 47.6 26.2 48 27 48H33.8V70C33.8 71.1 34.7 72 35.8 72H43.8C44.9 72 45.8 71.1 45.8 70V48H53C53.8 48 54.4 47.6 54.8 46.9C55.1 46.2 55.1 45.4 54.6 44.8L41.6 26.8C41.2 26.3 40.6 26 40 26zM30.9 44L40 31.4L49.1 44H43.8C42.7 44 41.8 44.9 41.8 46V68H37.8V46C37.8 44.9 36.9 44 35.8 44H30.9z M69 8H11C4.9 8 0 12.9 0 19V34C0 40 4.9 45 11 45H20C21.1 45 22 44.1 22 43S21.1 41 20 41H11C7.1 41 4 37.9 4 34V19C4 15.1 7.1 12 11 12H69C72.9 12 76 15.1 76 19V34C76 37.8 72.9 41 69 41H60C58.9 41 58 41.9 58 43S58.9 45 60 45H69C75.1 45 80 40.1 80 34V19C80 12.9 75.1 8 69 8z" />
    <glyph glyph-name="editer"
      unicode="&#xF13A;"
      horiz-adv-x="80" d=" M78.3 69.7L69.7 78.3C68.6 79.5 67 80 65.4 80C63.8 80 62.3 79.4 61.1 78.2L8.9 26.1L0 0.1L26.1 9L78.2 61.1C80.6 63.5 80.6 67.3 78.3 69.7zM9.5 15.3L11.5 21.2L21.3 11.4L15.4 9.4L9.5 15.3zM13.5 25L57.3 68.8L68.8 57.3L25 13.4L13.5 25zM75.5 64L71.7 60.2L60.2 71.7L64 75.5C64.8 76.3 66.1 76.3 66.9 75.5L75.5 66.9C76.3 66.1 76.3 64.8 75.5 64z" />
    <glyph glyph-name="export-pdf"
      unicode="&#xF13B;"
      horiz-adv-x="80" d=" M74.6 0H5.4V80H56.6C66.5 80 74.6 71.9 74.6 62V0zM9.4 4H70.7V62C70.7 69.7 64.4 76 56.7 76H9.4V4z M49.5 54.7C48.5 55.3 47.3 54.9 46.8 54L41.8 45.4V62C41.8 63.1 40.9 64 39.8 64S37.8 63.1 37.8 62V45.9L33.1 54C32.5 55 31.3 55.3 30.4 54.7C29.4 54.1 29.1 52.9 29.7 52L38.2 37.2C38.6 36.6 39.2 36.2 39.9 36.2S41.3 36.6 41.6 37.2L50.1 52C50.8 52.9 50.5 54.1 49.5 54.7zM26.5 26.6C30.1 26.6 32.4 24.9 32.4 21.8C32.4 18.8 30.4 16.9 26.5 16.9H24.7V12H21.3V26.6H26.5zM26.5 19.4C28.2 19.4 29 20.2 29 21.8C29 23 28.3 24 26.5 24H24.7V19.4H26.5zM52.7 24V20.3H57.7V17.7H52.7V12H49.3V26.6H58.7V24H52.7zM47.3 19.3C47.3 15.1 44.3 12 39.7 12H34V26.6H39.7C44.3 26.6 47.3 23.4 47.3 19.3zM43.8 19.3C43.8 22.1 42.3 24 39.7 24H37.4V14.6H39.7C42.4 14.6 43.8 16.7 43.8 19.3z" />
    <glyph glyph-name="failure"
      unicode="&#xF13C;"
      horiz-adv-x="80" d=" M40 0C13.4 0 1.3 20.7 1.3 40C1.3 63.1 17.6 80 40 80C62.8 80 78.7 63.5 78.7 39.9C78.7 16.4 62.8 0 40 0zM40 76C19.9 76 5.3 60.8 5.3 39.9C5.3 22.6 16.2 3.9 40 3.9C63.9 3.9 74.7 22.5 74.7 39.9C74.7 61.2 60.4 76 40 76z M42.8 40L58 55.3C58.8 56.1 58.8 57.4 58 58.1C57.2 58.9 55.9 58.9 55.2 58.1L40 42.9L24.9 58.1C24.1 58.9 22.9 58.9 22.1 58.1S21.3 56.1 22.1 55.3L37.2 40L22.1 24.8C21.3 24 21.3 22.7 22.1 22C22.5 21.6 23 21.4 23.5 21.4S24.5 21.6 24.9 22L40 37.2L55.1 22C55.5 21.6 56 21.4 56.5 21.4S57.5 21.6 57.9 22C58.7 22.8 58.7 24 57.9 24.8L42.8 40z" />
    <glyph glyph-name="filled-check"
      unicode="&#xF13D;"
      horiz-adv-x="80" d=" M40 80C17.9 80 0 62.1 0 40S17.9 0 40 0S80 17.9 80 40S62.1 80 40 80zM62.5 50.7C57 45.5 51.4 40.3 45.8 35.1L33.4 23.6C32.2 22.5 30.3 22.6 29.2 23.7C28.4 24.6 27.5 25.5 26.7 26.4L16.7 37.1C15.6 38.3 15.7 40.2 16.8 41.3C17.6 42 18.4 42.8 19.1 43.5L19.6 44C20.8 45.1 22.7 45 23.8 43.9C26.4 41.1 28.9 38.4 31.5 35.7C32.2 36.4 32.9 37 33.7 37.7L41.6 45.1C45.6 48.8 49.6 52.6 53.6 56.3L55.6 58.2C56.8 59.3 58.7 59.2 59.8 58.1L62.6 55.1C63.8 53.7 63.7 51.8 62.5 50.7z" />
    <glyph glyph-name="filled-error"
      unicode="&#xF13E;"
      horiz-adv-x="80" d=" M40 80C17.9 80 0 62.1 0 40S17.9 0 40 0S80 17.9 80 40S62.1 80 40 80zM57.6 28.4C58.8 27.2 58.8 25.3 57.6 24.1L55.9 22.4L54.2 20.7C53 19.5 51.1 19.5 49.9 20.7L42.1 28.5L40 30.8L30 20.8C28.8 19.6 26.9 19.6 25.7 20.8L24 22.5L22.3 24.2C21.1 25.4 21.1 27.3 22.3 28.5L30.1 36.3L32.3 38.5L30.1 40.7L22.3 48.5C21.1 49.7 21.1 51.6 22.3 52.8L25.6 56.1C26.8 57.3 28.7 57.3 29.9 56.1L39.9 46.1L42.1 48.3L50 56C51.2 57.2 53.1 57.2 54.3 56L57.6 52.7C58.8 51.5 58.8 49.6 57.6 48.4L47.6 38.4L57.6 28.4z" />
    <glyph glyph-name="filled-info"
      unicode="&#xF13F;"
      horiz-adv-x="80" d=" M40 80C17.9 80 0 62.1 0 40S17.9 0 40 0S80 17.9 80 40S62.1 80 40 80zM45 16H35V47H45V16zM40 53.7C36.8 53.7 34.4 55.8 34.4 58.8S36.8 63.8 40 63.8C43.3 63.8 45.6 61.8 45.6 58.8S43.3 53.7 40 53.7z" />
    <glyph glyph-name="filled-question"
      unicode="&#xF140;"
      horiz-adv-x="80" d=" M40 80C17.9 80 0 62.1 0 40S17.9 0 40 0S80 17.9 80 40S62.1 80 40 80zM39.7 14.1C36.7 14.1 35 15.6 35 18.7C35 21.9 36.7 23.4 39.7 23.4S44.3 21.8 44.3 18.7S42.7 14.1 39.7 14.1zM42.4 34.4C42.4 33.8 42.6 33.4 43.1 32.7C43.5 32.1 43.7 31.4 43.7 30.6C43.7 28.2 41.7 26.8 39.9 26.8C38.8 26.8 37.9 27.2 37.2 27.9C35.3 29.7 34.6 31.9 34.6 33.9C34.6 42.8 48.3 43.3 48.3 50.8C48.3 54.3 45.7 56.2 41.2 56.2C37.3 56.2 34.6 54.2 34.6 50.3C34.6 48.2 32.8 46.4 30.7 46.4S26.8 48.2 26.8 50.3C26.8 58.3 32.2 63.1 41.2 63.1C50.5 63.1 55.9 58.7 55.9 50.8C55.9 39.4 42.4 38.6 42.4 34.4z" />
    <glyph glyph-name="filled-warning"
      unicode="&#xF141;"
      horiz-adv-x="80" d=" M79.1 11.4L44.7 73.2C42.5 77.1 38.9 77.2 36.6 73.3L1 11.4C-1.3 7.5 0.6 4 5.1 4H74.9C79.4 4 81.3 7.5 79.1 11.4zM40.5 14.3C38 14.3 36.6 15.5 36.6 18.2S38 22.2 40.5 22.2S44.4 20.9 44.4 18.2C44.3 15.6 43 14.3 40.5 14.3zM44.2 31C44 28 43 28.4 41.4 28.4C41.2 28.4 40.9 28.1 40.9 28.1C40.8 28.1 40.6 28.3 40.4 28.3C38.8 28.3 37.8 28 37.7 31C37.7 31 36.3 40.9 36.5 49.1C36.6 53.9 37 55.1 37.3 55.7C37.8 56.8 39.1 57.4 40.4 57.4H40.9S41.2 57.5 41.4 57.5C42.8 57.5 44 57 44.5 55.9C44.8 55.3 45.2 54 45.3 49.1C45.5 40.9 44.2 31 44.2 31z" />
    <glyph glyph-name="filter"
      unicode="&#xF142;"
      horiz-adv-x="80" d=" M74.8 73.9C75.4 73.9 75.7 73.5 75.9 73.2S76.1 72.4 75.7 71.9L46 41.2V24.6L34 12.1V41.2L4.3 71.9C3.9 72.3 4 72.8 4.1 73.2S4.5 73.9 5.2 73.9H74.8zM74.8 77.9H5.2C0.6 77.9 -1.7 72.4 1.5 69.1L30 39.6V2.1L50 23V39.6L78.5 69.1C81.7 72.4 79.4 77.9 74.8 77.9z" />
    <glyph glyph-name="forbidUser"
      unicode="&#xF143;"
      horiz-adv-x="80" d=" M29.1 55.5C22.3 55.5 16.8 61 16.8 67.8S22.4 80 29.1 80C35.9 80 41.4 74.5 41.4 67.7S35.9 55.5 29.1 55.5zM29.1 76C24.5 76 20.8 72.3 20.8 67.7S24.5 59.4 29.1 59.4S37.4 63.1 37.4 67.7S33.7 76 29.1 76zM52.1 41.4C50.8 41.4 49.5 41.3 48.3 41C44.5 47.9 37.1 52.2 29.2 52.2C17.1 52.2 7.3 42.4 7.3 30.3V18.8C7.3 17.7 8.2 16.8 9.3 16.8H31.8C32.6 12.7 34.6 9 37.4 6.1L37.5 6L37.6 5.9C41.3 2.2 46.5 0 52.1 0C63.5 0 72.8 9.3 72.8 20.7S63.5 41.4 52.1 41.4zM11.2 30.3C11.2 40.2 19.2 48.2 29.1 48.2C35.3 48.2 41 45 44.3 39.8C36.8 36.7 31.5 29.4 31.4 20.8H11.2V30.3zM52.1 37.4C56 37.4 59.6 36.1 62.4 33.8L38.9 10.4C36.7 13.2 35.3 16.8 35.3 20.7C35.4 29.9 42.9 37.4 52.1 37.4zM52.1 4C48.2 4 44.6 5.3 41.8 7.6L65.2 31C67.4 28.2 68.8 24.6 68.8 20.7C68.8 11.5 61.3 4 52.1 4z" />
    <glyph glyph-name="gauge-full"
      unicode="&#xF144;"
      horiz-adv-x="80" d=" M75.6 10.8C75.4 10.8 75.2 10.8 74.9 10.9C73.9 11.3 73.3 12.4 73.7 13.4C75.2 17.7 76 22.5 76 27.7C76 46.3 64.9 65.1 40 65.1C15.3 65.1 4 45.7 4 27.7C4 22.7 4.7 18 6.2 13.8C6.6 12.8 6 11.6 4.9 11.3C3.9 10.9 2.7 11.5 2.4 12.6C0.8 17.2 0 22.3 0 27.8C0 47.7 12.5 69.2 40 69.2S80 47.7 80 27.8C80 22.2 79.2 16.9 77.5 12.2C77.2 11.3 76.4 10.8 75.6 10.8z M55.2 31.2C54.8 32.7 41.6 34.1 38.4 33.3C35.2 32.5 33.2 29.2 33.9 26C34.7 22.8 38 20.8 41.2 21.5C44.5 22.4 55.6 29.7 55.2 31.2zM39.8 25.8C38.9 25.8 38.2 26.5 38.2 27.4C38.2 28.3 38.9 29 39.8 29C40.7 29 41.4 28.3 41.4 27.4C41.5 26.6 40.7 25.8 39.8 25.8zM39.9 48.6C38.8 48.6 37.9 49.5 37.9 50.6V58.6C37.9 59.7 38.8 60.6 39.9 60.6S41.9 59.7 41.9 58.6V50.6C41.9 49.5 41 48.6 39.9 48.6zM18.9 22.6H9.9C8.8 22.6 7.9 23.5 7.9 24.6S8.8 26.6 9.9 26.6H18.9C20 26.6 20.9 25.7 20.9 24.6S20 22.6 18.9 22.6zM68.9 22.6H58.9C57.8 22.6 56.9 23.5 56.9 24.6S57.8 26.6 58.9 26.6H68.9C70 26.6 70.9 25.7 70.9 24.6S70 22.6 68.9 22.6zM25.5 36.9C25 36.9 24.5 37.1 24.1 37.5L17.7 43.9C16.9 44.7 16.9 45.9 17.7 46.7C18.5 47.5 19.7 47.5 20.5 46.7L26.9 40.3C27.7 39.5 27.7 38.3 26.9 37.5C26.5 37.1 26 36.9 25.5 36.9zM54.1 36.9C53.6 36.9 53.1 37.1 52.7 37.5C51.9 38.3 51.9 39.5 52.7 40.3L59.1 46.7C59.9 47.5 61.1 47.5 61.9 46.7C62.7 45.9 62.7 44.7 61.9 43.9L55.5 37.5C55.1 37.1 54.6 36.9 54.1 36.9z" />
    <glyph glyph-name="graph"
      unicode="&#xF145;"
      horiz-adv-x="80" d=" M80 15H0V67H4V19H80V15z M12 27.5A2 2 0 0 1 10.32 30.59L18.12 42.59A2 2 0 0 1 21.23 42.9L27.28 36.69L33.72 46.34A1.8 1.8 0 0 1 35.39 47H42.39L49.6 54.65A2.07 2.07 0 0 1 52.47 54.52L59.63 47H65.5L72.71 58.34A2 2 0 0 1 75.48 59.05A1.93 1.93 0 0 1 76.07 56.34L68.27 44.12A2.23 2.23 0 0 1 66.58 43H58.78A2.33 2.33 0 0 1 57.35 43.85L51 50.51L44.64 43.79A2.23 2.23 0 0 1 43.21 43H36.48L29.27 32.16A1.87 1.87 0 0 1 27.79 31.38A2.14 2.14 0 0 1 26.16 32L20.11 38.24L13.68 28.35A2 2 0 0 1 12 27.5z" />
    <glyph glyph-name="grip"
      unicode="&#xF146;"
      horiz-adv-x="80" d=" M16 80H32V64H16zM16 48H32V32H16zM16 16H32V0H16zM48 80H64V64H48zM48 48H64V32H48zM48 16H64V0H48z" />
    <glyph glyph-name="harddisk"
      unicode="&#xF147;"
      horiz-adv-x="80" d=" M74.4 0H17.6C11 0 5.6 5.4 5.6 12V80H62.5C69.1 80 74.5 74.6 74.5 68V0zM9.6 76V12C9.6 7.6 13.2 4 17.6 4H70.5V68C70.5 72.4 66.9 76 62.5 76H9.6z M62.9 19.4C62.2 20.7 58.1 25.9 54.5 30.6C59.4 34.7 62.4 41 62.4 48.7C62.4 62.3 53.2 71.8 40.1 71.8C27.2 71.8 17.8 62.1 17.8 48.7C17.8 37.3 25.5 25.7 40.1 25.7C42.6 25.7 44.9 26 47.1 26.7C49.1 21.1 51.4 14.8 52.2 13.5C56.2 6.6 66.4 11.7 62.9 19.4zM40 29.6C27.4 29.6 21.7 39.5 21.7 48.6C21.7 59.7 29.4 67.7 40 67.7C50.8 67.7 58.3 59.8 58.3 48.6C58.3 42.9 56.3 37.3 51.9 33.6C49.8 36.3 48.2 38.3 48.1 38.5C46.6 41.2 42.1 39.8 43.5 35.9C43.6 35.7 44.5 33.3 45.6 30.2C43.9 29.9 42.1 29.6 40 29.6z M40 42.8C36.7 42.8 34.1 45.5 34.1 48.7S36.8 54.6 40 54.6C43.3 54.6 45.9 51.9 45.9 48.7S43.3 42.8 40 42.8zM40 50.6C38.9 50.6 38.1 49.7 38.1 48.7S39 46.8 40 46.8S41.9 47.7 41.9 48.7S41.1 50.6 40 50.6z" />
    <glyph glyph-name="harddiskspeed"
      unicode="&#xF148;"
      horiz-adv-x="80" d=" M33.5 33.8C30.7 33.8 28.4 36.1 28.4 38.9S30.7 44 33.5 44S38.6 41.7 38.6 38.9S36.3 33.8 33.5 33.8zM33.5 40C32.9 40 32.4 39.5 32.4 38.9S32.9 37.8 33.5 37.8C34.1 37.8 34.6 38.3 34.6 38.9S34.1 40 33.5 40zM70.7 46.2C70.5 46.2 70.3 46.2 70 46.3C69 46.7 68.4 47.8 68.8 48.8C69.6 51.1 70 53.6 70 56.3C70 66.1 64.2 76 51.2 76S32.3 65.8 32.3 56.4C32.3 53.8 32.7 51.3 33.4 49.1C33.8 48.1 33.2 46.9 32.1 46.6C31.1 46.2 29.9 46.8 29.6 47.9C28.7 50.5 28.2 53.4 28.2 56.5C28.3 67.8 35.5 80 51.2 80S74 67.8 74 56.4C74 53.2 73.5 50.2 72.6 47.5C72.3 46.7 71.5 46.2 70.7 46.2z M59.5 58.3C59.3 59.1 52 59.9 50.3 59.5C48.5 59.1 47.4 57.3 47.9 55.5C48.3 53.7 50.1 52.6 51.9 53.1C53.7 53.4 59.7 57.4 59.5 58.3zM51.1 55.3C50.6 55.3 50.2 55.7 50.2 56.2S50.6 57.1 51.1 57.1S52 56.7 52 56.2S51.6 55.3 51.1 55.3zM51 67C49.9 67 49 67.9 49 69V73C49 74.1 49.9 75 51 75S53 74.1 53 73V69C53 67.9 52.1 67 51 67zM40 52H35C33.9 52 33 52.9 33 54S33.9 56 35 56H40C41.1 56 42 55.1 42 54S41.1 52 40 52zM67 52H62C60.9 52 60 52.9 60 54S60.9 56 62 56H67C68.1 56 69 55.1 69 54S68.1 52 67 52zM43.2 60.5C42.7 60.5 42.2 60.7 41.8 61.1L38.3 64.6C37.5 65.4 37.5 66.6 38.3 67.4C39.1 68.2 40.3 68.2 41.1 67.4L44.6 63.9C45.4 63.1 45.4 61.9 44.6 61.1C44.2 60.7 43.7 60.5 43.2 60.5zM58.9 60.5C58.4 60.5 57.9 60.7 57.5 61.1C56.7 61.9 56.7 63.1 57.5 63.9L61 67.4C61.8 68.2 63 68.2 63.8 67.4C64.6 66.6 64.6 65.4 63.8 64.6L60.3 61.1C60 60.7 59.4 60.5 58.9 60.5zM51.6 15.7C51 16.7 48 20.6 45.2 24.2C49.2 27.5 51.6 32.6 51.6 38.8C51.6 40.6 51.4 41.9 51 43.9H46.9C47.4 41.9 47.6 40.6 47.6 38.8C47.6 34.5 46 30.1 42.7 27.3C41.2 29.2 40 30.7 39.9 30.9C38.7 33 35.1 32 36.3 28.9C36.4 28.7 37 27.1 37.8 24.8C36.5 24.4 35.1 24.2 33.5 24.2C23.8 24.2 19.4 31.8 19.4 38.8C19.4 43.8 21.5 48 24.9 50.6C24.6 52.1 24.5 53.6 24.4 55.1C18.9 52 15.4 46.1 15.4 38.7C15.4 29.4 21.6 20.1 33.5 20.1C35.5 20.1 37.4 20.4 39.2 20.9C40.8 16.6 42.5 11.9 43.1 10.8C46.3 5.6 54.3 9.7 51.6 15.7z M57 44V4H15.3C12.3 4 9.9 6.5 9.9 9.5V60H24.5C24.7 61 24.9 63 25.2 64H6V9.5C6 4.3 10.1 0 15.4 0H61V44H57z" />
    <glyph glyph-name="headset"
      unicode="&#xF149;"
      horiz-adv-x="80" d=" M68.8 51.6C66.9 68.6 56.3 79 40.1 79C23.2 79 13.3 69.3 11.6 51.6C5.2 51.4 0 46.1 0 39.6V31.7C0 25.7 4.9 21 10.9 21H16C19.9 21 22.9 23.9 22.9 27.7V45.1C22.9 48.7 20 52.1 16.4 52.1H15.5C16.3 60.1 19.2 66.7 24.1 70.5C25.3 69.1 27.4 67.4 30.3 67.4C31.2 67.4 32.1 67.5 33.1 67.8C37.1 69.2 38.3 69.1 39.5 69.1H40.6C41.8 69.1 43 69.1 47 67.8C51 66.4 54 68.4 55.7 70.1C60.6 66.1 63.7 60.1 64.6 52.1H64.1C60 52.1 56.8 48.4 56.8 44.3V27.8C56.8 25.1 58.3 22.9 60.6 21.7C59.9 15.4 54.5 10 47.2 8H38V1H49V4.1C57 6.9 63.5 13 64.7 21H69.1C75.1 21 80 25.6 80 31.7V39.6C80 46 75 51.1 68.8 51.6zM4 31.7V39.6C4 43.8 7.1 47.2 11.2 47.6C11.2 47.1 11 46.6 11 46V25H10.9C7.1 25 4 27.9 4 31.7zM16.5 48C17.9 48 19 46.4 19 45V27.7C19 26 17.7 25 16.1 25H15V46C15 46.5 15.3 47 15.3 48H16.5zM48.4 71.5C43.7 73.1 42.1 73 40.6 73H39.6C38.2 73 36.5 73.1 31.8 71.5C29.6 70.8 28.2 71.6 27.5 72.4C31.1 74.1 35.3 75 40.1 75C44.8 75 48.9 74 52.4 72.2C51.6 71.5 50.3 70.9 48.4 71.5zM61 44.3C61 46.1 62.4 48.1 64.3 48.1H65.1C65.1 47.1 65 46.6 65 46.1V25.1H63.9C62.2 25.1 61 26.2 61 27.8V44.3zM76 31.7C76 27.9 73 24.8 69 24.8V46V47.5C72.9 47 76 43.6 76 39.6V31.7z" />
    <glyph glyph-name="home"
      unicode="&#xF14A;"
      horiz-adv-x="80" d=" M62.1 0H18.9C14.1 0 10.1 3.9 10.1 8.8V39.7H14.1V8.8C14.1 6.2 16.2 4 18.9 4H62.1C64.3 4 66.1 5.8 66.1 8V39.7H70.1V8C70.1 3.6 66.5 0 62.1 0zM72.1 42.5L62 52.5V72H52V61.5L39.6 74.3L7.9 42.5L5.1 45.3L39.6 80L48 71.3V76H66V54.2L74.9 45.3z" />
    <glyph glyph-name="hosting"
      unicode="&#xF14B;"
      horiz-adv-x="80" d=" M39.6 49C32.4 49 28.6 54.7 28.6 60.3C28.6 66.7 33.3 71.6 39.6 71.6C46 71.6 50.6 66.8 50.6 60.3S46 49 39.6 49zM39.6 67.7C35.4 67.7 32.5 64.6 32.5 60.3C32.5 56.6 34.7 52.9 39.6 52.9S46.7 56.6 46.7 60.3S44.5 67.7 39.6 67.7zM17.8 56.5C10.6 56.5 6.8 62.2 6.8 67.8C6.8 74.2 11.5 79.1 17.8 79.1C24.2 79.1 28.8 74.3 28.8 67.8C28.7 61.3 24.1 56.5 17.8 56.5zM17.8 75.2C13.6 75.2 10.7 72.1 10.7 67.8C10.7 64.1 12.9 60.4 17.8 60.4S24.9 64.1 24.9 67.8S22.7 75.2 17.8 75.2zM61.5 56.5C54.3 56.5 50.5 62.2 50.5 67.8C50.5 74.2 55.2 79.1 61.5 79.1C67.9 79.1 72.5 74.3 72.5 67.8S67.9 56.5 61.5 56.5zM61.5 75.2C57.3 75.2 54.4 72.1 54.4 67.8C54.4 64.1 56.6 60.4 61.5 60.4S68.6 64.1 68.6 67.8S66.4 75.2 61.5 75.2z M80 36.5C80 45.4 74.2 54.4 61.7 54.4C54.8 54.4 49.2 51.4 46 46.2C44.1 46.9 41.9 47.3 39.6 47.3C37.2 47.3 35.1 46.9 33.3 46.3C30.1 51.5 24.8 54.4 18 54.4C5.5 54.4 0 45.4 0 36.5V23H5V11.1C5 5.6 9.3 1 14.8 1H64.5C70 1 74 5.6 74 11.1V23H80V36.5zM53.2 33H26C27.4 38 31.5 42.9 39.6 42.9C47.9 42.9 51.9 38 53.2 33zM5.5 27H4V36.5C4 42.9 7.5 50.4 17.9 50.4C24.5 50.4 27.9 47.2 29.7 44.5C25.3 41.8 22.7 37.1 21.8 33.1H14.8C10.6 33 6.9 31 5.5 27zM70 11.1C70 7.8 67.7 4.9 64.5 4.9H14.8C11.6 5 9 7.9 9 11.1V23.2C9 26.5 11.6 29 14.9 29H65.3C68.1 29 70 26.9 70 24.1V11.1zM76 27H74.1C73 30 69.4 33 65.3 33H57.4C56.4 37 53.8 41.6 49.6 44.2C51.4 46.9 55 50.3 61.7 50.3C72.1 50.3 76 42.9 76 36.5V27z M58.1 20.2C58.1 18.5431457505076 59.4431457505076 17.2 61.1 17.2C62.7568542494924 17.2 64.1 18.5431457505076 64.1 20.2C64.1 21.8568542494924 62.7568542494924 23.2 61.1 23.2C59.4431457505076 23.2 58.1 21.8568542494924 58.1 20.2z" />
    <glyph glyph-name="housing"
      unicode="&#xF14C;"
      horiz-adv-x="80" d=" M72.2 42.4L62.1 52.4V72H52V61.4L39.6 74.3L7.9 42.4L5 45.2L39.7 80L48 71.3V76H66.1V54.1L75 45.2z M57.5 28.4C57.5 27.2954305003384 58.3954305003384 26.4 59.5 26.4C60.6045694996616 26.4 61.5 27.2954305003384 61.5 28.4C61.5 29.5045694996616 60.6045694996616 30.4 59.5 30.4C58.3954305003384 30.4 57.5 29.5045694996616 57.5 28.4z M57.5 10.7C57.5 9.5954305003384 58.3954305003384 8.7 59.5 8.7C60.6045694996616 8.7 61.5 9.5954305003384 61.5 10.7C61.5 11.8045694996616 60.6045694996616 12.7 59.5 12.7C58.3954305003384 12.7 57.5 11.8045694996616 57.5 10.7z M60.1 39.4H20.1C14.6 39.4 10.1 34.9 10.1 29.4V10C10.1 4.5 14.6 0 20.1 0H60.1C65.6 0 70.1 4.5 70.1 10V29.4C70.1 34.9 65.6 39.4 60.1 39.4zM20.1 35.4H60.1C63.4 35.4 66.1 32.7 66.1 29.4V21.5H14.1V29.4C14.1 32.7 16.8 35.4 20.1 35.4zM60.1 4H20.1C16.8 4 14.1 6.7 14.1 10V17.4H66.1V10C66.1 6.7 63.4 4 60.1 4z" />
    <glyph glyph-name="import-csv"
      unicode="&#xF14D;"
      horiz-adv-x="80" d=" M50.3 48.2L41.7 63C41.3 63.6 40.7 64 40 64S38.6 63.6 38.3 63L29.8 48.2C29.2 47.2 29.6 46 30.5 45.5C31.5 44.9 32.7 45.3 33.2 46.2L37.9 54.3V38.2C37.9 37.1 38.8 36.2 39.9 36.2S41.9 37.1 41.9 38.2V54.8L46.9 46.2C47.5 45.2 48.7 44.9 49.6 45.5C50.5 46 50.8 47.3 50.3 48.2z M74.6 0H5.4V80H56.6C66.5 80 74.6 71.9 74.6 62V0zM9.4 4H70.7V62C70.7 69.7 64.4 76 56.7 76H9.4V4z M32 15.7C32.2 15.6 33.6 14.1 33.6 14.1C33 13.3 31.5 11.8 28.3 11.8C24.5 11.8 21.2 14.3 21.2 19.3C21.2 24.2 24.7 26.7 28.5 26.7C31.5 26.7 33.2 25 33.5 24.8C33.5 24.8 32.3 23.1 32.1 23C32 22.9 31.5 22.8 31.3 23C30.7 23.3 30 24 28.4 24C26.7 24 24.6 23 24.6 19.3C24.6 16 26.6 14.6 28.5 14.6C30.1 14.6 30.8 15.1 31.3 15.5C31.4 15.7 31.8 15.8 32 15.7zM58.9 26.6L53 12H50L44.2 26.6H46.9C47.2 26.6 47.4 26.5 47.6 26.4S47.9 26.1 48 25.9L50.8 18.1C50.9 17.8 51.1 17.4 51.2 17S51.4 16.2 51.6 15.7C51.7 16.1 51.8 16.6 51.9 17C52 17.4 52.1 17.8 52.3 18.1L55.1 25.9C55.2 26.1 55.3 26.3 55.5 26.4C55.7 26.6 55.9 26.6 56.2 26.6H58.9zM43.1 23.6C42.8 23.1 42.4 23 41.9 23.3C41.3 23.6 40.5 24.1 39.6 24.1C39 24.1 38.1 23.9 37.8 23.2C37.6 22.5 37.6 21.9 38.7 21.4C39.3 21.1 41.1 20.7 42.1 20.1C43.7 19.2 44.5 17.6 44 15.4C43.6 13.6 41.9 11.9 39 11.9C36.8 11.9 34.7 13.1 34 13.8L35 15.4C35.3 15.8 35.8 15.9 36.3 15.6C37.3 15 38 14.6 39.1 14.6C40 14.6 40.8 14.9 41 15.8C41.2 16.7 40.9 17.2 40 17.7C39.6 17.9 37.4 18.5 36.6 18.9C34.5 20 34.2 22.3 34.9 24.1C35.4 25.3 36.9 26.8 39.6 26.8C42.1 26.8 43.6 25.7 44.1 25.3L43.1 23.6z" />
    <glyph glyph-name="info"
      unicode="&#xF14E;"
      horiz-adv-x="80" d=" M40.1 80C17.2 80 1.5 62.5 1.5 39.9C1.5 19.1 15.2 0 40.1 0C64.8 0 78.7 18.4 78.7 39.9C78.7 62.2 64.1 80 40.1 80zM44 18H36V51H44V18zM40.1 55.2C36.9 55.2 35.2 57.6 35.2 60.2C35.2 63 37.2 65.2 40.1 65.2C43.2 65.2 45 63 45 60.2C45.1 57.5 43.3 55.2 40.1 55.2z" />
    <glyph glyph-name="infrastructure"
      unicode="&#xF14F;"
      horiz-adv-x="80" d=" M63.6 30L50.5 52.5C53 54.3 54.5 57.1 54.5 60.4V80H35.6C30.1 80 25.5 75.5 25.5 70V50H28.9L17 30H10.7C5.1 30 0.5 25.3 0.5 19.8V0H19.6C24.4 0 28.3 3.6 29.3 8H50.4V0H69.4C74.9 0 79.4 4.7 79.4 10.2V30H63.6zM29.5 70C29.5 73.3 32.3 76 35.6 76H50.5V60.4C50.5 57.1 47.9 54 44.6 54H29.5V70zM25.5 10.2C25.5 6.9 22.9 4 19.6 4H4.5V19.8C4.5 23.1 7.4 26 10.7 26H25.5V10.2zM50.5 19.8V12H29.5V30H21.6L33.5 50H44.6C45.4 50 46.2 50.3 46.9 50.5L59 29.6C54.2 28.8 50.5 24.8 50.5 19.8zM75.5 10.2C75.5 6.9 72.8 4 69.5 4H54.5V19.8C54.5 23.1 57.2 26 60.5 26H75.5V10.2z" />
    <glyph glyph-name="inprogress"
      unicode="&#xF150;"
      horiz-adv-x="80" d=" M67.5 66.2C69.9 67.2 71.5 69.6 71.5 72.5V72.7C71.5 76.6 68.7 79.5 64.8 79.5H16C12.1 79.5 8.5 76.6 8.5 72.7V72.5C8.5 69.7 10.4 67.3 12.8 66.2C13 49.4 24 42.1 30.7 40.2V39.8C24.4 38 12.8 30.5 12.8 13.6C10.4 12.6 8.5 10.2 8.5 7.3V7.1C8.5 3.2 12 0.4 15.9 0.4H64.7C68.6 0.4 71.4 3.1 71.4 7.1V7.3C71.4 10.1 69.9 12.5 67.5 13.5C67.5 30.4 56.1 38 49.8 39.7V39.9L49.7 40.1C56.6 42.1 67.4 49.4 67.5 66.2zM12.5 72.7C12.5 74.4 14.2 75.5 16 75.5H64.8C66.5 75.5 67.5 74.4 67.5 72.7V72.5C67.5 71 66.7 69.5 65.1 69.5H15.6C14.1 69.5 12.5 71 12.5 72.5V72.7zM67.5 7.2C67.5 5.5 66.5 4.5 64.8 4.5H15.9C14.2 4.5 12.5 5.4 12.5 7.2V7.4C12.5 8.9 14.1 10.6 15.6 10.6H65.1C66.6 10.6 67.5 9 67.5 7.4V7.2zM48.7 36.2C54.2 34.8 63.5 28.5 63.8 14.5H17C17.3 28.5 26.5 34.8 32.1 36.2C33.1 36.5 34.8 37.7 34.8 40.1C34.8 42.3 33.4 43.6 32.1 43.9C26.6 45.4 17.4 51.5 17 65.5H63.7C63.4 51.5 54.1 45.3 48.6 43.9C47.3 43.6 45.9 42.1 45.9 40C46 37.6 47.6 36.5 48.7 36.2z M54.7 28.3C51.5 31.5 48.8 32.5 46.4 33.3C42.7 34.7 42.1 37.8 42.1 39.6C42.1 41.3 42.8 44.8 46.3 45.8C49.7 46.8 53.8 49.4 55.9 52.5H24C26.1 49.5 30.2 46.8 33.6 45.8C37.1 44.8 37.8 41.2 37.8 39.6C37.8 37.8 37.2 34.7 33.5 33.3C31.2 32.4 28.5 31.5 25.2 28.3C21.7 24.9 20.8 21 19.9 17.5H59.9C59.1 21 58.2 24.8 54.7 28.3z" />
    <glyph glyph-name="internet"
      unicode="&#xF151;"
      horiz-adv-x="80" d=" M60.2 39.5C59.6 39.5 58.7 39.4 57.8 39.1C57 41 55.6 42 54 42.5C56.8 46.4 58.4 51.4 58.4 56.9C58.4 70.5 49.2 80 36.1 80C23.2 80 13.8 70.3 13.8 56.9C13.8 45.9 20.1 37.1 30.1 34.6V30.6H30L28.4 32.1C27.1 33.4 25.5 34 23.9 34H23.8C22.2 34 20.7 33.3 19.4 32.1C17.2 29.9 16.7 26 19.6 23.1L23.9 18.8C26.5 16.1 28.5 13.1 30 10C32.1 5.4 33.2 1.5 33.2 1.5C33.4 0.6 34.2 0.1 35.1 0.1H58.3C59.2 0.1 59.9 0.7 60.2 1.5C60.2 1.6 63.2 10.5 64.4 14.8C65.7 19.3 66 24.8 66 25.1L65.9 25.2V33C66.1 37.8 63.1 39.5 60.2 39.5zM17.8 56.8C17.8 67.9 25.5 75.9 36.1 75.9C46.9 75.9 54.4 68 54.4 56.8C54.4 51.3 52.5 46.3 49.1 42.9C48.2 44.2 46.8 44.9 45.4 45.1C48.6 47.8 50.5 52 50.5 56.8C50.5 65.5 44.4 71.8 36 71.8S21.5 65.5 21.5 56.8C21.5 51.9 23.6 47.5 27.1 44.7C28 44 29 43.5 30 43V38.6C22.1 41.4 17.8 49.5 17.8 56.8zM30.1 53.4V47.7C30.1 47.8 29.8 47.9 29.7 48C27.2 50 25.7 53.2 25.7 56.9C25.7 63.3 30.1 67.9 36.2 67.9C43.5 67.9 46.7 62.4 46.7 56.9C46.7 52.9 45.2 49.6 42.2 47.7V53.5C42.2 58.4 39.2 60.1 36.3 60.1C33.2 60 30.1 58.3 30.1 53.4zM62.1 25.1C62.1 24.6 61.8 19.6 60.7 15.8C59.7 12.6 57.9 6.7 57 4H36.7C36.2 5.6 35.2 8.5 33.7 11.7C32.1 15.2 29.8 18.6 26.8 21.6L22.5 26C21.2 27.3 21.7 28.7 22.3 29.3C22.7 29.7 23.2 30 23.9 30C24.6 30 25.2 29.6 25.5 29.3L27.1 27.7C28.6 26.2 29.5 25.4 29.8 25.1C29.9 25 30 25 30 25V23.7C30 22.6 30.9 21.7 32 21.7S34 22.6 34 23.7V53.4C34 55.6 34.8 56 36.1 56C37.1 56 38 55.8 38 53.4V33.6C38 32.5 38.9 31.6 40 31.6S42 32.5 42 33.6V38.6C42 40.8 42.8 41.2 44.1 41.2C45.1 41.2 46 41 46 38.6V32.4C46 31.3 46.9 30.4 48 30.4S50 31.3 50 32.4V38C51 38.3 51.4 38.6 52 38.6C53 38.6 54 38.4 54 36V29.8C54 28.7 54.9 27.8 56 27.8S58 28.7 58 29.8V34.8C59 35.1 59.4 35.4 60 35.4C61 35.4 62 35.2 62 32.8V25.1z" />
    <glyph glyph-name="ip"
      unicode="&#xF152;"
      horiz-adv-x="80" d=" M46 54.9C43.9 54.9 43 54.7 41 54.5V40.1C43 39.8 43.9 39.7 45.5 39.7C51.3 39.7 54.8 42.5 54.8 47.6C54.8 52.5 51.3 54.9 46 54.9z M40 80C17.9 80 0 62.1 0 40S17.9 0 40 0S80 17.9 80 40S62.1 80 40 80zM29 21H25V59H29V21zM45.4 35.8C44 35.8 43 35.9 41 36.1V21H37V58C39 58.4 42.5 58.7 46.3 58.7C55.5 58.7 60.1 54.4 60.1 47.8C60.1 40.3 54.7 35.8 45.4 35.8z" />
    <glyph glyph-name="iplb"
      unicode="&#xF153;"
      horiz-adv-x="80" d=" M42.3 55.5V65.4C45.1 66.3 47 69.1 47 72C47 75.8 43.7 79 40 79C36.2 79 33 75.7 33 72C33 68.7 34.9 66.4 37.7 65.4V55.5H9.4V41.4H14.1V50.8H37.6V41.4H42.3V50.8H65.8V41.4H70.5V55.5H42.3zM79.8 36.7H0V13.2H23.5V3.8H56.4V13.2H79.9V36.7zM4.7 18V32H23.5V18H4.7zM51.7 8.6H28.2V32H51.7V8.6zM75.1 18H56.4V32H75.2V18z" />
    <glyph glyph-name="key"
      unicode="&#xF154;"
      horiz-adv-x="80" d=" M77.8 0L63.1 0.1C62.6 0.1 62.1 0.3 61.7 0.7L59.4 3L53.6 1.6C52.9 1.4 52.2 1.6 51.7 2.1L46.5 7.3C46 7.8 45.8 8.5 46 9.2L47.4 15L44.7 17.7L39 16.1C38.3 15.9 37.6 16.1 37.1 16.6L31.9 21.8C31.4 22.3 31.2 23 31.4 23.7L32.8 29.5L29.6 32.7C22.1 30.5 14.3 32.5 8 38.2C2.8 43 0.1 48.9 0.2 55.3C0.3 61.1 2.7 66.9 7 71.6C16.4 81.9 30.5 82.8 40.4 73.7C47.4 67.3 49.9 58.6 47.1 50L79.1 18C79.5 17.6 79.7 17.1 79.7 16.6L79.8 2C79.8 1.5 79.6 1 79.2 0.6C78.8 0.2 78.3 0 77.8 0zM63.9 4.1L75.8 4L75.7 15.8L43.4 48.1C42.8 48.7 42.7 49.5 42.9 50.2C45.7 57.6 43.8 65.1 37.6 70.7C29.5 78.3 17.8 77.5 10 68.9C6.4 64.9 4.3 60.1 4.2 55.2C4.1 50 6.4 45.1 10.7 41.2C16.3 36.1 22.9 34.6 29.5 36.9C30.2 37.2 31 37 31.6 36.4L36.5 31.5C37 31 37.2 30.3 37 29.6L35.6 23.8L39.2 20.2L45 21.6C45.7 21.8 46.4 21.6 46.9 21.1L51.2 16.8C51.7 16.3 51.9 15.6 51.7 14.9L50.3 9.1L53.9 5.5L59.7 6.9C60.4 7.1 61.1 6.9 61.6 6.4L63.9 4.1zM19.3 53.1C17.7 53.1 16 53.7 14.6 55C13.1 56.4 12.2 58.2 12.3 60.2C12.3 61.9 13 63.7 14.3 65C15.6 66.4 17.3 67.3 19.1 67.4C21 67.5 22.8 66.9 24.3 65.6C25.8 64.2 26.6 62.4 26.6 60.6C26.6 58.8 25.9 57.1 24.6 55.6C23.1 54 21.2 53.1 19.3 53.1zM19.7 63.5H19.5C18.7 63.4 17.9 63 17.3 62.4C16.7 61.7 16.4 61 16.3 60.2C16.3 59.4 16.6 58.7 17.3 58.1C18.9 56.6 20.6 57.3 21.6 58.4C22.2 59.1 22.6 59.9 22.6 60.6C22.6 61.4 22.3 62.1 21.6 62.7C21 63.2 20.4 63.5 19.7 63.5z" />
    <glyph glyph-name="lightbulb"
      unicode="&#xF155;"
      horiz-adv-x="80" d=" M53.2 8.9H27.1V17.4C20.6 21.6 16.7 29.2 16.7 37.8C16.7 51.8 26.5 61.9 40 61.9C53.7 61.9 63.3 52 63.3 37.8C63.3 29.2 59.5 21.7 53.1 17.5V8.9zM31.1 12.9H49.2V19.7L50.2 20.3C55.9 23.6 59.4 30.2 59.4 37.8C59.4 49.6 51.5 57.9 40.1 57.9C28.9 57.9 20.8 49.4 20.8 37.8C20.8 30.1 24.3 23.6 30.2 20.2L31.2 19.6V12.9zM52.4 0.8H27.6C26.5 0.8 25.6 1.7 25.6 2.8S26.5 4.8 27.6 4.8H52.4C53.5 4.8 54.4 3.9 54.4 2.8S53.5 0.8 52.4 0.8z M25.8 35.8C24.7 35.8 23.8 36.7 23.8 37.8C23.8 47.5 30.6 54.6 40.1 54.6C41.2 54.6 42.1 53.7 42.1 52.6S41.2 50.6 40.1 50.6C33 50.6 27.8 45.2 27.8 37.8C27.8 36.7 26.9 35.8 25.8 35.8zM39.9 66.4C38.8 66.4 37.9 67.3 37.9 68.4V77.2C37.9 78.3 38.8 79.2 39.9 79.2S41.9 78.3 41.9 77.2V68.4C41.9 67.3 41 66.4 39.9 66.4zM10.5 35.8H2C0.9 35.8 0 36.7 0 37.8S0.9 39.8 2 39.8H10.5C11.6 39.8 12.5 38.9 12.5 37.8S11.6 35.8 10.5 35.8zM78 35.8H69.5C68.4 35.8 67.5 36.7 67.5 37.8S68.4 39.8 69.5 39.8H78C79.1 39.8 80 38.9 80 37.8S79.1 35.8 78 35.8zM18.4 57.2C17.9 57.2 17.4 57.4 17 57.8L10.8 64C10 64.8 10 66 10.8 66.8C11.6 67.6 12.8 67.6 13.6 66.8L19.8 60.6C20.6 59.8 20.6 58.6 19.8 57.8C19.5 57.4 19 57.2 18.4 57.2zM61.6 57.5C61.1 57.5 60.6 57.7 60.2 58.1C59.4 58.9 59.4 60.1 60.2 60.9L66.4 67.1C67.2 67.9 68.4 67.9 69.2 67.1C70 66.3 70 65.1 69.2 64.3L63 58.1C62.6 57.7 62.1 57.5 61.6 57.5z" />
    <glyph glyph-name="lock"
      unicode="&#xF156;"
      horiz-adv-x="80" d=" M69 52H60V60C60 71 51 80 40 80S20 71 20 60V52H11C9.3 52 8 50.7 8 49V3C8 1.3 9.3 0 11 0H69C70.7 0 72 1.3 72 3V49C72 50.7 70.7 52 69 52zM24 60C24 68.8 31.2 76 40 76S56 68.8 56 60V52H24V60zM68 4H12V48H68V4z M40 16.1C42.2 16.1 44 17.9 44 20.1V32.1C44 34.3 42.2 36.1 40 36.1S36 34.3 36 32.1V20.1C36 17.9 37.8 16.1 40 16.1z" />
    <glyph glyph-name="lockOpened"
      unicode="&#xF157;"
      horiz-adv-x="80" d=" M70 52H61V60C61 71 52 80 41 80C32.8 80 25.5 75.1 22.5 67.4C22.1 66.4 22.6 65.2 23.6 64.8C24.6 64.4 25.8 64.9 26.2 65.9C28.6 72.1 34.4 76 41 76C49.8 76 57 68.8 57 60V52H12C10.3 52 9 50.7 9 49V3C9 1.3 10.3 0 12 0H70C71.7 0 73 1.3 73 3V49C73 50.7 71.6 52 70 52zM69 4H13V48H69V4z M41 16.1C43.2 16.1 45 17.9 45 20.1V32.1C45 34.3 43.2 36.1 41 36.1S37 34.3 37 32.1V20.1C37 17.9 38.8 16.1 41 16.1z" />
    <glyph glyph-name="mail"
      unicode="&#xF158;"
      horiz-adv-x="80" d=" M65.6 68.5H14.4C6.5 68.5 0 62.3 0 54.3V26.1C0 17.9 6.7 11.5 15 11.5H65.4C73.4 11.5 80 17.7 80 25.8V54.3C80 62.3 73.5 68.5 65.6 68.5zM65.6 64.5C68 64.5 70.2 63.8 72 62.4L40.3 34.6H40.2L8.2 62.5C9.9 63.8 12.1 64.5 14.4 64.5H65.6zM4 26.1V54.3C4 56.3 4.6 58.1 5.5 59.7L23.8 43.6L5.7 20.3C4.6 22 4 24 4 26.1zM15 15.5C12.6 15.5 10.3 16.1 8.5 17.5L26.9 41.1L37.6 31.7C38.4 31 39.3 30.7 40.3 30.7S42.2 31 43 31.7L53.7 41.1L72 17.7C70.2 16.3 67.9 15.6 65.5 15.6H15V15.5zM76 25.8C76 23.9 75.5 22.1 74.6 20.5L56.6 43.7L74.6 59.5C75.5 58 76 56.2 76 54.3V25.8z" />
    <glyph glyph-name="message"
      unicode="&#xF159;"
      horiz-adv-x="80" d=" M0.1 0.1V70C0.1 75.6 4.6 80 10.2 80H80V21.5C80 16 75.5 11.5 70 11.5H24.1L0.1 0.1zM10.2 76.1C6.8 76.1 4.1 73.4 4.1 70V6.4L23.1 15.5H69.8C73.1 15.5 75.8 18.2 75.8 21.5V76.1H10.2z M18.1 60.5H61.9V56.5H18.1zM18.1 47.3H61.9V43.3H18.1zM18.1 34.2H61.9V30.2H18.1z" />
    <glyph glyph-name="microphone"
      unicode="&#xF15A;"
      horiz-adv-x="80" d=" M40 28C48.8 28 56 35.2 56 44V64C56 72.8 48.8 80 40 80S24 72.8 24 64V44C24 35.2 31.2 28 40 28zM28 64C28 70.6 33.4 76 40 76S52 70.6 52 64V44C52 37.4 46.6 32 40 32S28 37.4 28 44V64z M64 44V54C64 55.1 63.1 56 62 56S60 55.1 60 54V44C60 33 51 24 40 24S20 33 20 44V54C20 55.1 19.1 56 18 56S16 55.1 16 54V44C16 33.6 22.7 24.7 32 21.4V20C32 13.7 29 7.8 24 4H18C16.9 4 16 3.1 16 2S16.9 0 18 0H62C63.1 0 64 0.9 64 2S63.1 4 62 4H56C51 7.8 48 13.7 48 20V21.4C57.3 24.7 64 33.6 64 44zM50.1 4H29.9C33.8 8.4 36 14 36 20V20.3C37.3 20.1 38.6 20 40 20S42.7 20.1 44 20.3V20C44 14 46.2 8.4 50.1 4z" />
    <glyph glyph-name="microphoneOff"
      unicode="&#xF15B;"
      horiz-adv-x="80" d=" M55.4 56.6L67.4 68.6C68.2 69.4 68.2 70.6 67.4 71.4C66.6 72.2 65.4 72.2 64.6 71.4L56 62.8V64C56 72.8 48.8 80 40 80S24 72.8 24 64V44C24 43.3 24 42.5 24.1 41.8C24.3 40.8 25.1 40.1 26.1 40.1H26.4C27.5 40.3 28.2 41.3 28 42.4V64C28 70.6 33.4 76 40 76S52 70.6 52 64V58.8L23 29.8L12.6 19.4C11.8 18.6 11.8 17.4 12.6 16.6C13 16.2 13.5 16 14 16S15 16.2 15.4 16.6L24.5 25.7C26.8 23.8 29.3 22.4 32 21.4V20C32 13.7 29 7.7 23.9 4H18C16.9 4 16 3.1 16 2S16.9 0 18 0H62C63.1 0 64 0.9 64 2S63.1 4 62 4H56.1C51 7.7 48 13.7 48 20V21.4C57.3 24.7 64 33.6 64 44V54C64 55.1 63.1 56 62 56S60 55.1 60 54V44C60 33 51 24 40 24C35.4 24 30.9 25.6 27.3 28.5L30.2 31.4C33 29.2 36.5 28 40 28C48.8 28 56 35.2 56 44V46C56 47.1 55.1 48 54 48S52 47.1 52 46V44C52 37.4 46.6 32 40 32C37.5 32 35.1 32.8 33.1 34.2L55.4 56.6zM44 20.3V20C44 14 46.2 8.3 50.1 4H29.9C33.8 8.3 36 14 36 20V20.3C37.3 20.1 38.6 20 40 20S42.7 20.1 44 20.3z M19.6 33.7C19.8 33.7 20.1 33.7 20.3 33.8C21.3 34.2 21.8 35.4 21.4 36.4C20.4 38.9 19.9 41.5 19.9 44V54C19.9 55.1 19 56 17.9 56S15.9 55.1 15.9 54V44C15.9 41 16.5 38 17.6 35C18 34.2 18.8 33.7 19.6 33.7z" />
    <glyph glyph-name="monthly-billing"
      unicode="&#xF15C;"
      horiz-adv-x="80" d=" M65 74V78C65 79.1 64.1 80 63 80S61 79.1 61 78V74H50V78C50 79.1 49.1 80 48 80S46 79.1 46 78V74H34V78C34 79.1 33.1 80 32 80S30 79.1 30 78V74H18V78C18 79.1 17.1 80 16 80S14 79.1 14 78V74H13.9C6.2 74 0 67.8 0 60.1V0H65.7C73.4 0 80 6.4 80 14.1V74H65zM13.9 70H14V63.3C14 62.2 14.9 61.3 16 61.3S18 62.2 18 63.3V70H30V63.3C30 62.2 30.9 61.3 32 61.3S34 62.2 34 63.3V70H46V63.3C46 62.2 46.9 61.3 48 61.3S50 62.2 50 63.3V70H61V63.3C61 62.2 61.9 61.3 63 61.3S65 62.2 65 63.3V70H76V52H4V60.1C4 65.6 8.4 70 13.9 70zM65.7 4H4V48H76V14.1C76 8.6 71.2 4 65.7 4z M5.9 30.1H8C8.8 34.5 11.8 38.6 16.9 38.6C20.2 38.6 22.2 37 23.4 35.4C23.4 35.4 21.9 33.8 21.7 33.6C21.5 33.4 21.1 33.4 20.8 33.6C19.9 34.2 19.3 35.2 17.1 35.2C14.2 35.2 12.7 32.9 12.1 30.1H20.1V28.9C20.1 28.4 19.7 27.9 19 27.9H11.8V26.1H18.6V24.9C18.6 24.5 18.2 23.9 17.5 23.9H12C12.5 20.5 14.2 18.4 16.9 18.4C19 18.4 19.8 19.3 20.6 20.1C21 20.5 21.3 20.4 21.6 20.4C21.7 20.4 23.6 18.6 23.6 18.6C22.9 17.4 21 15 16.7 15C11.2 15 8.6 19.2 7.9 23.8H5.9V26H7.8V27.8H5.9V30.1zM28.8 15.2C28.6 14.7 28.3 14.3 27.9 14.1C27.5 13.9 27.1 13.7 26.7 13.7H25L34.3 37.6C34.5 38 34.7 38.4 35.1 38.6C35.5 38.8 35.9 39 36.3 39H38L28.8 15.2zM40.7 31.9C41.2 35.6 43.7 38.6 48.6 38.6C53.6 38.6 55.6 35.4 55.6 32.6C55.6 29.5 54.2 28.2 51.9 27.4C54.6 26.6 56 24.8 56 22C56 18.5 53.6 14.9 48.1 14.9C42.4 14.9 41 18.3 40 21L41.7 21.7C42.5 22.1 43.5 21.9 43.9 21.2C44.6 19.9 45.5 18.2 48 18.2C49.9 18.2 52 19.4 52 21.9C52 24.6 50.7 25.6 46.7 25.6V28.4C50.1 28.4 51.7 29.5 51.7 31.9C51.7 33.9 50.6 35.2 48.4 35.2C46.2 35.2 45.2 33.7 44.8 32.5C44.5 31.6 43.9 31.3 42.8 31.4L40.7 31.9zM74.1 18.2V15.2H61.3V18.2H66V31.7V33.3L62.7 30.5C62 30 61.2 30.2 60.9 30.6L59.7 32.3L66.8 38.3H70V18.1H74.1z" />
    <glyph glyph-name="network"
      unicode="&#xF15D;"
      horiz-adv-x="80" d=" M60 38C60.9 34 64.1 31.7 68 31.7C72.6 31.7 76.3 35.4 76.3 40C76.3 44.6 72.6 48.3 68 48.3C64.1 48.3 60.9 46.1 60 42.1H43.7L60.6 68.1C62 65.4 64.8 63.5 68 63.5C72.6 63.5 76.3 67.2 76.3 71.8C76.3 76.4 72.6 80.1 68 80.1C64.7 80.1 61.9 78.2 60.6 75.4L40 43.7L19.5 75.3C18.1 78 15.3 79.9 12 79.9C7.4 79.9 3.7 76.2 3.7 71.6C3.7 67 7.4 63.3 12 63.3C15.2 63.3 18 65.2 19.4 67.9L36.3 41.9H20C19.1 45.9 15.9 48.1 12 48.1C7.4 48.1 3.7 44.4 3.7 39.8C3.7 35.2 7.4 31.6 12 31.6C15.9 31.6 19.1 33.9 20 37.9H36.2L19.3 11.9C17.9 14.6 15.1 16.4 11.9 16.4C7.3 16.4 3.6 12.7 3.6 8.1C3.6 3.5 7.3 -0.2 11.9 -0.2C15.3 -0.2 18.1 1.8 19.4 4.7L40 36.4L60.4 5C61.7 2.1 64.6 0.1 67.9 0.1C72.5 0.1 76.2 3.8 76.2 8.4C76.2 13 72.5 16.7 67.9 16.7C64.7 16.7 61.9 14.9 60.5 12.2L43.7 38H60zM68 44.3C70.4 44.3 72.3 42.4 72.3 40S70.4 35.7 68 35.7S63.7 37.6 63.7 40C63.7 42.3 65.6 44.3 68 44.3zM12 35.7C9.6 35.7 7.7 37.6 7.7 40S9.6 44.3 12 44.3S16.3 42.4 16.3 40S14.4 35.7 12 35.7zM68 75.9C70.4 75.9 72.3 74 72.3 71.6S70.4 67.3 68 67.3S63.7 69.2 63.7 71.6S65.6 75.9 68 75.9zM12 67.4C9.6 67.4 7.7 69.3 7.7 71.7C7.8 74 9.7 75.9 12 75.9S16.3 74 16.3 71.6C16.3 69.3 14.4 67.4 12 67.4zM12 4.1C9.6 4.1 7.7 6 7.7 8.4S9.6 12.7 12 12.7S16.3 10.8 16.3 8.4S14.4 4.1 12 4.1zM68 12.6C70.4 12.6 72.3 10.7 72.3 8.3S70.4 4 68 4S63.7 5.9 63.7 8.3S65.6 12.6 68 12.6z" />
    <glyph glyph-name="newMail"
      unicode="&#xF15E;"
      horiz-adv-x="80" d=" M65 39V21.7C65 19.9 64.3 18.3 63.5 16.9L60.5 20.7C59.4 19.8 58.1 19.2 56.6 19L60.6 13.9C59 12.7 56.9 12 54.6 12H14.1C11.9 12 9.9 12.6 8.3 13.8L23.3 33L32.1 25.2C32.8 24.6 33.7 24.2 34.6 24.2C35.5 24.2 36.4 24.5 37.1 25.1L45.9 32.8L49.1 28.7V35.3L49 35.4L49.1 35.5V39H46.9L34.5 28.3L8.3 51.3C9.9 52.5 11.9 53.1 14.1 53.1H49V57.1H14C6.3 57 0 50.7 0 43V22C0 14.3 6.3 8 14 8H55C62.7 8 69 14.3 69 22V39H65zM4 21.7V43.2C4 45.1 4.6 46.9 5.5 48.4L20.2 35.5L5.4 16.6C4.5 18.1 4 19.9 4 21.7z M77 49H59V69C59 70.7 57.7 72 56 72S53 70.7 53 69V49H34C32.3 49 31 47.7 31 46S32.3 43 34 43H53V26C53 24.3 54.3 23 56 23S59 24.3 59 26V43H77C78.7 43 80 44.3 80 46S78.7 49 77 49z" />
    <glyph glyph-name="news"
      unicode="&#xF15F;"
      horiz-adv-x="80" d=" M11 77C4.9 77 0 71.5 0 65.3V3H68.7C74.9 3 80 8.3 80 14.4V77H11zM52 61H57V52H65V61H70V40H65V49H57V40H52V61zM33.4 61C34 61 34.6 60.6 35 59.8L38.9 48.8C39.1 48.3 39.8 46.1 39.9 45.4C40 46 40.7 48.3 40.9 48.7L44.8 59.6C45.1 60.3 45.7 60.9 46.3 60.9H50.1L42 40H37.7L29.5 61H33.4zM19.4 60.9C26 60.7 29.8 56 29.7 50.2C29.6 44.6 25.7 39.9 18.9 40.1C12.1 40.3 8.5 45.3 8.6 50.7C8.8 56.6 13.1 61.1 19.4 60.9zM23 19H21.5C20.9 19 20.5 19.3 20.2 19.6L12.9 28.8C12.9 28.5 12.9 28.3 13 28S13 27.5 13 27.3V19H10V34H11.7C12.2 34 12.5 34.2 12.9 33.7L20.1 24.7C20.1 25 20 26.1 20 26.3V34H23V19zM36 32H30V28H35V25H30V22H36V19H26V34H36V32zM54.7 19H51.5S48.3 29.4 48.3 29.6C48.2 29.4 45 19 45 19H41.8L37 34H40C40.5 34 41.1 34 41.2 33.5C41.2 33.5 43.6 24.1 43.7 23.8C43.8 24.5 46.7 33.5 46.7 33.5C46.9 34 47.4 34.1 47.9 34.1H49C49.6 34.1 50 34 50.2 33.6C50.2 33.6 53 24.6 53.1 24C53.2 24.3 55.6 33.6 55.6 33.6C55.8 34.1 56.2 34.2 56.8 34.2H59.6L54.7 19zM70.3 22.6C69.8 20.7 68 18.9 64.9 18.9C62.5 18.9 60.4 20.1 59.6 20.9L60.7 22.6C61 23 61.5 23.2 62.1 22.8C63.1 22.2 63.9 21.7 65 21.7C66 21.7 66.8 22.1 67 22.9C67.2 23.9 66.9 24.4 66 24.9C65.5 25.1 63.3 25.7 62.4 26.2C60.2 27.4 59.8 29.8 60.6 31.7C61.1 33 62.7 34.6 65.6 34.6C68.2 34.6 69.9 33.4 70.3 33L69.4 31.3C69 30.8 68.6 30.7 68 31C67.3 31.3 66.6 31.8 65.5 31.8C64.8 31.8 63.9 31.6 63.6 30.9C63.3 30.1 63.4 29.5 64.6 28.9C65.2 28.6 67.2 28.1 68.2 27.5C70 26.6 70.9 24.9 70.3 22.6z M19 44C22.8 43.9 25 46.8 25 50.3C25.1 53.9 22.9 56.8 19.3 56.9C15.8 57 13.4 54.2 13.3 50.6C13.2 47.3 15.2 44.1 19 44z" />
    <glyph glyph-name="newtab"
      unicode="&#xF160;"
      horiz-adv-x="80" d=" M80 8H8V80H80V8zM12 12H76V76H12V12z M63.7 64C63.2 64.5 62.5 64.7 61.8 64.5L29 55.7C27.9 55.4 27.3 54.3 27.6 53.3C27.9 52.2 29 51.6 30 51.9L56.1 58.9L24.7 27.3C23.9 26.5 23.9 25.3 24.7 24.5C25.1 24.1 25.6 23.9 26.1 23.9S27.1 24.1 27.5 24.5L58.3 55.3L51.6 30.3C51.3 29.2 51.9 28.1 53 27.9C53.2 27.9 53.3 27.8 53.5 27.8C54.4 27.8 55.2 28.4 55.4 29.3L64.2 62C64.4 62.7 64.2 63.5 63.7 64z M72 0H0V72H4V4H72z" />
    <glyph glyph-name="noneSpeaker"
      unicode="&#xF161;"
      horiz-adv-x="80" d=" M44.5 0C44.1 0 43.6 0.1 43.3 0.4L16.4 21.2H3.4C2.3 21.2 1.4 22.1 1.4 23.2V56.8C1.4 57.9 2.3 58.8 3.4 58.8H16.4L43.3 79.6C43.9 80.1 44.7 80.1 45.4 79.8C46.1 79.5 46.5 78.8 46.5 78V2C46.5 1.2 46.1 0.5 45.4 0.2C45.1 0.1 44.8 0 44.5 0zM5.4 25.2H17.1C17.5 25.2 18 25.1 18.3 24.8L42.5 6.1V73.9L18.3 55.2C17.9 54.9 17.5 54.8 17.1 54.8H5.4V25.2zM66.6 40L77 50.4C77.8 51.2 77.8 52.4 77 53.2C76.2 54 75 54 74.2 53.2L63.8 42.8L53.4 53.2C52.6 54 51.4 54 50.6 53.2C49.8 52.4 49.8 51.2 50.6 50.4L61 40L50.5 29.6C49.7 28.8 49.7 27.6 50.5 26.8C50.9 26.4 51.4 26.2 51.9 26.2S52.9 26.4 53.3 26.8L63.7 37.2L74.1 26.8C74.5 26.4 75 26.2 75.5 26.2S76.5 26.4 76.9 26.8C77.7 27.6 77.7 28.8 76.9 29.6L66.6 40z" />
    <glyph glyph-name="options"
      unicode="&#xF162;"
      horiz-adv-x="80" d=" M76 52.1C76 57 73.7 61 70 63V73.6C70 76.7 67.8 79.9 64 79.9C60.3 79.9 58 76.6 58 73.6V62.9C54.4 60.8 52 56.9 52 52.1C52 47.8 54 43.4 58 41.2V6.3C58 3.2 60.2 0 64 0C67.7 0 70 3.3 70 6.3V41.1C73.7 43.2 76 47.1 76 52.1zM62 73.6C62 74.5 62.7 75.9 64 75.9C65.6 75.9 66 74.3 66 73.6V64.3C65.4 64.4 64.7 64.5 64 64.5S62.6 64.4 62 64.3V73.6zM65.9 6.4C65.9 5.5 65.3 4.1 63.9 4.1C62.3 4.1 61.9 5.7 61.9 6.4V39.9C62.5 39.8 63.2 39.7 63.9 39.7S65.2 39.8 65.9 39.8V6.4zM64 43.8C58.5 43.8 56 48 56 52.1C56 57 59.3 60.5 64 60.5C69.5 60.5 72 56.3 72 52.1C72 48 69.5 43.8 64 43.8zM52 22.6C52 27.5 49.6 31.5 45.9 33.5V73.6C45.9 76.7 43.7 79.9 39.9 79.9C36.2 79.9 33.9 76.6 33.9 73.6V33.5C30.3 31.4 27.9 27.5 27.9 22.7C27.9 18.4 30 14 33.9 11.8V6.4C33.9 3.3 36.1 0.1 39.9 0.1C43.6 0.1 45.9 3.4 45.9 6.4V11.7C49.7 13.7 52 17.7 52 22.6zM38 73.6C38 74.5 38.7 75.9 40 75.9C41.6 75.9 42 74.3 42 73.6V34.9C41.3 35 40.7 35 40 35S38.6 34.9 38 34.8V73.6zM41.9 6.4C41.9 5.5 41.3 4.1 39.9 4.1C38.3 4.1 37.9 5.7 37.9 6.4V10.5C38.5 10.4 39.2 10.3 39.9 10.3S41.2 10.4 41.8 10.4L41.9 6.4zM40 14.3C34.5 14.3 32 18.5 32 22.6C32 27.5 35.3 31 40 31C45.5 31 48 26.8 48 22.6C48 18.5 45.5 14.3 40 14.3zM28 39.4C28 44.3 25.6 48.3 22 50.3V73.6C22 76.7 19.8 79.9 16 79.9C12.3 79.9 10 76.6 10 73.6V50.2C6.4 48.1 4 44.2 4 39.4C4 35.1 6 30.7 10 28.5V6.4C10 3.3 12.2 0.1 16 0.1C19.7 0.1 22 3.4 22 6.4V28.5C25.7 30.4 28 34.4 28 39.4zM14 73.6C14 74.5 14.7 75.9 16 75.9C17.6 75.9 18 74.3 18 73.6V51.6C17.4 51.7 16.7 51.8 16 51.8S14.6 51.7 14 51.6V73.6zM17.9 6.4C17.9 5.5 17.3 4.1 15.9 4.1C14.3 4.1 13.9 5.7 13.9 6.4V27.2C14.5 27.1 15.2 27 15.9 27S17.2 27.1 17.8 27.1L17.9 6.4zM16 31C10.5 31 8 35.2 8 39.3C8 44.2 11.3 47.7 16 47.7C21.5 47.7 24 43.5 24 39.3C24 35.2 21.5 31 16 31z" />
    <glyph glyph-name="ovhLogo"
      unicode="&#xF163;"
      horiz-adv-x="80" d=" M74.8 61.2L66.3 46.4H57.3L46.7 28H55.7L48.9 16.2H71C76.6 23.1 80 31.9 80 41.5C80 48.7 78.1 55.4 74.8 61.2zM31.1 16.2L58.5 63.8H35.3L19.5 36.3L5.2 61.2C1.9 55.4 0 48.7 0 41.5C0 31.9 3.4 23.1 9 16.2H31.1z" />
    <glyph glyph-name="page"
      unicode="&#xF164;"
      horiz-adv-x="80" d=" M74.6 0H5.4V80H56.6C66.5 80 74.6 71.9 74.6 62V0zM9.4 4H70.7V62C70.7 69.7 64.4 76 56.7 76H9.4V4z M17.3 59.9H62.7V55.9H17.3zM17.3 45.9H62.7V41.9H17.3zM17.3 32H62.7V28H17.3z" />
    </font>
</defs>
</svg>
